<?xml version="1.0" encoding="UTF-8" standalone="no"?>
<!-- Created with Inkscape (http://www.inkscape.org/) -->
<svg
   xmlns:dc="http://purl.org/dc/elements/1.1/"
   xmlns:cc="http://creativecommons.org/ns#"
   xmlns:rdf="http://www.w3.org/1999/02/22-rdf-syntax-ns#"
   xmlns:svg="http://www.w3.org/2000/svg"
   xmlns="http://www.w3.org/2000/svg"
   xmlns:sodipodi="http://sodipodi.sourceforge.net/DTD/sodipodi-0.dtd"
   xmlns:inkscape="http://www.inkscape.org/namespaces/inkscape"
   id="svg2556"
   sodipodi:version="0.32"
   inkscape:version="0.46"
   width="282"
   height="96.849998"
   xml:space="preserve"
   sodipodi:docname="CDA.svg"
   version="1.0"
   inkscape:output_extension="org.inkscape.output.svg.inkscape"><metadata
     id="metadata2561"><rdf:RDF><cc:Work
         rdf:about=""><dc:format>image/svg+xml</dc:format><dc:type
           rdf:resource="http://purl.org/dc/dcmitype/StillImage" /></cc:Work></rdf:RDF></metadata><defs
     id="defs2559"><inkscape:perspective
       sodipodi:type="inkscape:persp3d"
       inkscape:vp_x="0 : 526.18109 : 1"
       inkscape:vp_y="0 : 1000 : 0"
       inkscape:vp_z="744.09448 : 526.18109 : 1"
       inkscape:persp3d-origin="372.04724 : 350.78739 : 1"
       id="perspective2563" /><clipPath
       clipPathUnits="userSpaceOnUse"
       id="clipPath2579"><path
         d="M 0,0 L 453.543,0 L 453.543,680.315 L 0,680.315 L 0,0 z"
         id="path2581" /></clipPath><clipPath
       clipPathUnits="userSpaceOnUse"
       id="clipPath2595"><path
         d="M 189.922,179.859 L 453.544,179.859 L 453.544,269.858 L 189.922,269.858 L 189.922,179.859 z"
         id="path2597" /></clipPath></defs><sodipodi:namedview
     inkscape:window-height="713"
     inkscape:window-width="845"
     inkscape:pageshadow="2"
     inkscape:pageopacity="0.0"
     guidetolerance="10.0"
     gridtolerance="10.0"
     objecttolerance="10.0"
     borderopacity="1.0"
     bordercolor="#666666"
     pagecolor="#ffffff"
     id="base"
     showgrid="false"
     inkscape:zoom="0.6091296"
     inkscape:cx="-48.156336"
     inkscape:cy="88.652788"
     inkscape:window-x="2240"
     inkscape:window-y="213"
     inkscape:current-layer="g2565" /><g
     id="g2565"
     inkscape:groupmode="layer"
     inkscape:label="CDA-Verkiezingsprogramma-2010-Slagvaardig-en-samen"
     transform="matrix(1.25,0,0,-1.25,-10.124488,234.32062)"><g
       id="g2638"
       transform="matrix(1.5002314,0,0,1.5002314,-3.2516688,-56.613757)"
       style="fill:#01af33;fill-opacity:1"><g
         transform="translate(55.90959,144.97429)"
         id="g2599"
         style="fill:#01af33;fill-opacity:1"><path
           id="path2601"
           style="fill:#01af33;fill-opacity:1;fill-rule:nonzero;stroke:none"
           d="M 0,0 C -2.479,1.029 -6.917,1.587 -11.575,1.587 C -17.67,1.587 -27.932,-2.979 -27.932,-11.249 C -27.932,-15.971 -24.229,-18.282 -17.433,-18.282 C -12.705,-18.282 -9.459,-17.255 -4.992,-15.534 L -10.499,-31.456 C -14.046,-32.509 -19.906,-33.398 -25.913,-33.398 C -39.882,-33.398 -47.81,-23.289 -47.81,-15.758 C -47.81,3.904 -28.54,17.181 -8.655,17.181 C -3.904,17.181 1.493,16.573 5.386,15.584 L 0,0 z" /></g><g
         transform="translate(139.38089,161.88619)"
         id="g2603"
         style="fill:#01af33;fill-opacity:1"><path
           id="path2605"
           style="fill:#01af33;fill-opacity:1;fill-rule:nonzero;stroke:none"
           d="M 0,0 L -36.974,-50.041 L -17.388,-50.041 L -12.809,-42.153 L 0.687,-42.153 L 0.02,-50.041 L 18.029,-50.041 L 18.029,0 L 0,0 z M 2.816,-16.937 L 1.408,-32.949 L -7.548,-32.949 L 1.726,-16.937 L 2.816,-16.937 z" /></g><g
         transform="translate(113.37829,144.44559)"
         id="g2607"
         style="fill:#01af33;fill-opacity:1"><path
           id="path2609"
           style="fill:#01af33;fill-opacity:1;fill-rule:nonzero;stroke:none"
           d="M 0,0 C 0,7.963 -4.393,17.441 -23.412,17.441 L -42.945,17.441 L -60.435,-32.602 L -38.421,-32.602 C -14.203,-32.602 0,-14.791 0,0 M -37.168,-18.315 L -29.711,3.01 L -25.374,3.01 C -22.303,3.01 -19.325,1.72 -19.325,-1.311 C -19.325,-5.913 -22.898,-18.315 -37.168,-18.315" /></g></g></g></svg>