<?xml version="1.0" encoding="UTF-8" standalone="no"?>
<!-- Created with Inkscape (http://www.inkscape.org/) -->
<svg
   xmlns:dc="http://purl.org/dc/elements/1.1/"
   xmlns:cc="http://creativecommons.org/ns#"
   xmlns:rdf="http://www.w3.org/1999/02/22-rdf-syntax-ns#"
   xmlns:svg="http://www.w3.org/2000/svg"
   xmlns="http://www.w3.org/2000/svg"
   xmlns:sodipodi="http://sodipodi.sourceforge.net/DTD/sodipodi-0.dtd"
   xmlns:inkscape="http://www.inkscape.org/namespaces/inkscape"
   id="svg2403"
   sodipodi:version="0.32"
   inkscape:version="0.46"
   width="868.21997"
   height="102"
   xml:space="preserve"
   sodipodi:docname="ChristenUnie.svg"
   version="1.0"
   inkscape:output_extension="org.inkscape.output.svg.inkscape"><metadata
     id="metadata2408"><rdf:RDF><cc:Work
         rdf:about=""><dc:format>image/svg+xml</dc:format><dc:type
           rdf:resource="http://purl.org/dc/dcmitype/StillImage" /></cc:Work></rdf:RDF></metadata><defs
     id="defs2406"><inkscape:perspective
       sodipodi:type="inkscape:persp3d"
       inkscape:vp_x="0 : 526.18109 : 1"
       inkscape:vp_y="0 : 1000 : 0"
       inkscape:vp_z="744.09448 : 526.18109 : 1"
       inkscape:persp3d-origin="372.04724 : 350.78739 : 1"
       id="perspective2410" /><clipPath
       clipPathUnits="userSpaceOnUse"
       id="clipPath2418"><path
         d="M 0,595.28 L 841.89,595.28 L 841.89,0 L 0,0 L 0,595.28 z"
         id="path2420" /></clipPath></defs><sodipodi:namedview
     inkscape:window-height="924"
     inkscape:window-width="1484"
     inkscape:pageshadow="2"
     inkscape:pageopacity="0.0"
     guidetolerance="10.0"
     gridtolerance="10.0"
     objecttolerance="10.0"
     borderopacity="1.0"
     bordercolor="#666666"
     pagecolor="#ffffff"
     id="base"
     showgrid="false"
     inkscape:zoom="0.65087155"
     inkscape:cx="118.65224"
     inkscape:cy="104.09369"
     inkscape:window-x="1920"
     inkscape:window-y="22"
     inkscape:current-layer="g2416" /><g
     id="g2412"
     inkscape:groupmode="layer"
     inkscape:label="FEESTLOGO-CU-CMYK"
     transform="matrix(1.25,0,0,-1.25,-126.05085,274.40277)"><g
       clip-path="url(#clipPath2418)"
       id="g2416"><g
         id="g6799"
         transform="matrix(1.2075326,0,0,1.2075326,-196.1204,-30.721427)"><g
           style="fill:#012c6a;fill-opacity:1"
           id="g2422"
           transform="translate(298.02937,186.71551)"><path
             d="M 0,0 C -3.183,3.167 -7.803,4.964 -13.76,4.964 C -25.876,4.964 -34.809,-3.253 -34.809,-14.552 C -34.809,-25.851 -25.876,-34.067 -14.271,-34.067 C -7.803,-34.067 -2.568,-31.671 0.718,-27.563 L 14.068,-35.864 C 8.009,-43.055 -2.259,-46.393 -12.219,-46.393 C -34.911,-46.393 -51.443,-33.981 -51.443,-14.552 C -51.443,4.878 -34.911,17.29 -12.219,17.29 C -4.107,17.29 6.161,14.979 12.322,8.388 L 0,0 z"
             style="fill:#012c6a;fill-opacity:1;fill-rule:nonzero;stroke:none"
             id="path2424" /></g><g
           style="fill:#012c6a;fill-opacity:1"
           id="g2426"
           transform="translate(330.79207,206.57301)"><path
             d="M 0,0 L 0,-28.759 L 0.205,-28.759 C 1.641,-25.507 6.674,-22.084 14.169,-22.084 C 29.778,-22.084 32.653,-30.643 32.653,-41.771 L 32.653,-64.709 L 17.25,-64.709 L 17.25,-44.337 C 17.25,-39.546 17.148,-33.382 9.24,-33.382 C 1.231,-33.382 0,-38.604 0,-43.996 L 0,-64.709 L -15.402,-64.709 L -15.402,0 L 0,0 z"
             style="fill:#012c6a;fill-opacity:1;fill-rule:nonzero;stroke:none"
             id="path2428" /></g><g
           style="fill:#012c6a;fill-opacity:1"
           id="g2430"
           transform="translate(370.84097,183.46211)"><path
             d="M 0,0 L 15.403,0 L 15.403,-6.676 L 15.609,-6.676 C 18.895,-1.626 23.207,1.027 29.983,1.027 C 31.73,1.027 33.681,0.942 35.119,0.6 L 35.119,-11.127 C 32.961,-10.614 30.805,-10.271 28.546,-10.271 C 16.84,-10.271 15.403,-15.921 15.403,-24.222 L 15.403,-41.599 L 0,-41.599 L 0,0 z"
             style="fill:#012c6a;fill-opacity:1;fill-rule:nonzero;stroke:none"
             id="path2432" /></g><path
           d="M 410.55357,183.46231 L 425.95657,183.46231 L 425.95657,141.86331 L 410.55357,141.86331 L 410.55357,183.46231 z M 418.25557,204.00531 C 423.18257,204.00531 427.18857,200.66731 427.18857,196.55831 C 427.18857,192.45031 423.18257,189.11231 418.25557,189.11231 C 413.32557,189.11231 409.32257,192.45031 409.32257,196.55831 C 409.32257,200.66731 413.32557,204.00531 418.25557,204.00531"
           style="fill:#012c6a;fill-opacity:1;fill-rule:nonzero;stroke:none"
           id="path2434" /><g
           style="fill:#012c6a;fill-opacity:1"
           id="g2436"
           transform="translate(461.79407,171.22241)"><path
             d="M 0,0 C -2.259,2.311 -5.237,3.509 -8.934,3.509 C -11.501,3.509 -14.582,2.567 -14.582,0.086 C -14.582,-6.078 11.397,-0.855 11.397,-16.691 C 11.397,-27.306 -0.925,-30.386 -11.603,-30.386 C -18.586,-30.386 -26.288,-28.931 -31.217,-24.736 L -21.873,-16.092 C -18.997,-19.002 -15.607,-20.629 -10.989,-20.629 C -7.496,-20.629 -4.005,-19.857 -4.005,-17.633 C -4.005,-10.955 -29.984,-16.605 -29.984,-0.771 C -29.984,8.988 -19.511,13.267 -9.037,13.267 C -2.464,13.267 4.825,11.898 9.446,7.789 L 0,0 z"
             style="fill:#012c6a;fill-opacity:1;fill-rule:nonzero;stroke:none"
             id="path2438" /></g><g
           style="fill:#012c6a;fill-opacity:1"
           id="g2440"
           transform="translate(512.80287,173.19061)"><path
             d="M 0,0 L -13.555,0 L -13.555,-13.866 C -13.555,-18.317 -12.939,-21.57 -6.266,-21.57 C -4.622,-21.57 -1.337,-21.398 0,-20.373 L 0,-31.071 C -3.389,-32.099 -7.189,-32.354 -10.783,-32.354 C -21.052,-32.354 -28.959,-28.847 -28.959,-19.772 L -28.959,0 L -38.816,0 L -38.816,10.271 L -28.959,10.271 L -28.959,22.597 L -13.555,22.597 L -13.555,10.271 L 0,10.271 L 0,0 z"
             style="fill:#012c6a;fill-opacity:1;fill-rule:nonzero;stroke:none"
             id="path2442" /></g><g
           style="fill:#012c6a;fill-opacity:1"
           id="g2444"
           transform="translate(551.30867,167.37081)"><path
             d="M 0,0 C 0.104,4.279 -3.898,7.874 -9.445,7.874 C -16.223,7.874 -19.92,4.023 -20.33,0 L 0,0 z M 13.041,-18.318 C 8.115,-23.539 0,-26.535 -8.008,-26.535 C -23.41,-26.535 -35.732,-17.974 -35.732,-4.707 C -35.732,8.56 -23.41,17.118 -8.008,17.118 C 6.367,17.118 15.406,8.56 15.406,-4.707 L 15.406,-8.73 L -20.33,-8.73 C -19.099,-13.61 -14.684,-16.777 -8.727,-16.777 C -3.695,-16.777 -0.307,-14.637 2.26,-11.728 L 13.041,-18.318 z"
             style="fill:#012c6a;fill-opacity:1;fill-rule:nonzero;stroke:none"
             id="path2446" /></g><g
           style="fill:#012c6a;fill-opacity:1"
           id="g2448"
           transform="translate(572.57237,183.46211)"><path
             d="M 0,0 L 14.787,0 L 14.787,-5.648 L 14.99,-5.648 C 17.045,-2.396 22.076,1.027 29.572,1.027 C 45.178,1.027 48.053,-7.532 48.053,-18.66 L 48.053,-41.599 L 32.65,-41.599 L 32.65,-21.226 C 32.65,-16.435 32.549,-10.271 24.643,-10.271 C 16.635,-10.271 15.4,-15.494 15.4,-20.885 L 15.4,-41.599 L 0,-41.599 L 0,0 z"
             style="fill:#012c6a;fill-opacity:1;fill-rule:nonzero;stroke:none"
             id="path2450" /></g><g
           style="fill:#00a7eb;fill-opacity:1"
           id="g2452"
           transform="translate(690.07437,165.22921)"><path
             d="M 0,0 C 0,-14.294 -10.477,-24.907 -30.598,-24.907 C -50.828,-24.907 -61.301,-14.294 -61.301,0 L -61.301,37.235 L -45.283,37.235 L -45.283,0.515 C -45.283,-6.933 -39.123,-12.581 -30.598,-12.581 C -22.18,-12.581 -16.018,-6.933 -16.018,0.515 L -16.018,37.235 L 0,37.235 L 0,0 z"
             style="fill:#00a7eb;fill-opacity:1;fill-rule:nonzero;stroke:none"
             id="path2454" /></g><g
           style="fill:#00a7eb;fill-opacity:1"
           id="g2456"
           transform="translate(697.02157,183.46211)"><path
             d="M 0,0 L 14.785,0 L 14.785,-5.648 L 14.992,-5.648 C 17.043,-2.396 22.076,1.027 29.572,1.027 C 45.178,1.027 48.055,-7.532 48.055,-18.66 L 48.055,-41.599 L 32.65,-41.599 L 32.65,-21.226 C 32.65,-16.435 32.551,-10.271 24.643,-10.271 C 16.635,-10.271 15.402,-15.494 15.402,-20.885 L 15.402,-41.599 L 0,-41.599 L 0,0 z"
             style="fill:#00a7eb;fill-opacity:1;fill-rule:nonzero;stroke:none"
             id="path2458" /></g><path
           d="M 750.27357,183.46231 L 765.67957,183.46231 L 765.67957,141.86331 L 750.27357,141.86331 L 750.27357,183.46231 z M 757.97657,204.00531 C 762.90457,204.00531 766.90857,200.66731 766.90857,196.55831 C 766.90857,192.45031 762.90457,189.11231 757.97657,189.11231 C 753.04657,189.11231 749.04357,192.45031 749.04357,196.55831 C 749.04357,200.66731 753.04657,204.00531 757.97657,204.00531"
           style="fill:#00a7eb;fill-opacity:1;fill-rule:nonzero;stroke:none"
           id="path2460" /><g
           style="fill:#00a7eb;fill-opacity:1"
           id="g2462"
           transform="translate(805.06457,167.37081)"><path
             d="M 0,0 C 0.104,4.279 -3.898,7.874 -9.447,7.874 C -16.225,7.874 -19.92,4.023 -20.332,0 L 0,0 z M 13.041,-18.318 C 8.111,-23.539 0,-26.535 -8.01,-26.535 C -23.412,-26.535 -35.734,-17.974 -35.734,-4.707 C -35.734,8.56 -23.412,17.118 -8.01,17.118 C 6.367,17.118 15.402,8.56 15.402,-4.707 L 15.402,-8.73 L -20.332,-8.73 C -19.098,-13.61 -14.684,-16.777 -8.729,-16.777 C -3.695,-16.777 -0.307,-14.637 2.26,-11.728 L 13.041,-18.318 z"
             style="fill:#00a7eb;fill-opacity:1;fill-rule:nonzero;stroke:none"
             id="path2464" /></g></g></g></g></svg>