<?xml version="1.0" encoding="UTF-8" standalone="no"?>
<!-- Created with Inkscape (http://www.inkscape.org/) -->
<svg
   xmlns:dc="http://purl.org/dc/elements/1.1/"
   xmlns:cc="http://creativecommons.org/ns#"
   xmlns:rdf="http://www.w3.org/1999/02/22-rdf-syntax-ns#"
   xmlns:svg="http://www.w3.org/2000/svg"
   xmlns="http://www.w3.org/2000/svg"
   xmlns:sodipodi="http://sodipodi.sourceforge.net/DTD/sodipodi-0.dtd"
   xmlns:inkscape="http://www.inkscape.org/namespaces/inkscape"
   width="466"
   height="270"
   id="svg2"
   sodipodi:version="0.32"
   inkscape:version="0.46"
   version="1.0"
   sodipodi:docname="D66.svg"
   inkscape:output_extension="org.inkscape.output.svg.inkscape">
  <defs
     id="defs4">
    <inkscape:perspective
       sodipodi:type="inkscape:persp3d"
       inkscape:vp_x="0 : 526.18109 : 1"
       inkscape:vp_y="0 : 1000 : 0"
       inkscape:vp_z="744.09448 : 526.18109 : 1"
       inkscape:persp3d-origin="372.04724 : 350.78739 : 1"
       id="perspective10" />
  </defs>
  <sodipodi:namedview
     id="base"
     pagecolor="#ffffff"
     bordercolor="#666666"
     borderopacity="1.0"
     gridtolerance="10000"
     guidetolerance="10"
     objecttolerance="10"
     inkscape:pageopacity="0.0"
     inkscape:pageshadow="2"
     inkscape:zoom="1.2137821"
     inkscape:cx="198.57143"
     inkscape:cy="105.71429"
     inkscape:document-units="px"
     inkscape:current-layer="layer1"
     showgrid="false"
     showguides="true"
     inkscape:guide-bbox="true"
     inkscape:window-width="1312"
     inkscape:window-height="736"
     inkscape:window-x="1920"
     inkscape:window-y="22" />
  <metadata
     id="metadata7">
    <rdf:RDF>
      <cc:Work
         rdf:about="">
        <dc:format>image/svg+xml</dc:format>
        <dc:type
           rdf:resource="http://purl.org/dc/dcmitype/StillImage" />
      </cc:Work>
    </rdf:RDF>
  </metadata>
  <g
     inkscape:label="Layer 1"
     inkscape:groupmode="layer"
     id="layer1"
     transform="translate(0,-782.36218)">
    <g
       id="g3160">
      <rect
         y="782.36218"
         x="0"
         height="270"
         width="466"
         id="rect2383"
         style="opacity:1;fill:#01a737;fill-opacity:1;fill-rule:evenodd;stroke:none;stroke-width:2;stroke-linecap:round;stroke-linejoin:miter;stroke-miterlimit:4;stroke-dasharray:none;stroke-dashoffset:0;stroke-opacity:1" />
      <path
         id="text3155"
         d="M 76.877689,879.06766 L 76.877689,977.15718 L 105.83551,977.15718 C 120.65421,977.15721 130.98657,969.84979 136.83262,955.23489 C 140.02738,947.21377 141.62482,937.66313 141.62493,926.58296 C 141.62482,911.28843 139.21167,899.56256 134.38548,891.40533 C 129.62705,883.18034 120.1104,879.06779 105.83551,879.06766 L 76.877689,879.06766 M 111.13765,852.96484 C 120.45028,853.10094 128.19955,854.18856 134.38548,856.22769 C 144.92166,859.69461 153.45265,866.05037 159.97848,875.29499 C 165.21251,882.77248 168.78125,890.86163 170.68472,899.56246 C 172.58791,908.26349 173.53957,916.55657 173.53971,924.44171 C 173.53957,944.42675 169.52898,961.35278 161.50794,975.21987 C 150.63164,993.9133 133.84156,1003.26 111.13765,1003.26 L 46.390405,1003.26 L 46.390405,852.96484 L 111.13765,852.96484 M 217.0784,956.45846 C 217.07837,964.4117 219.21961,970.90342 223.50215,975.93361 C 227.78459,980.96387 233.22268,983.47898 239.81641,983.47896 C 246.27408,983.47898 251.33829,981.06583 255.00907,976.23951 C 258.74768,971.34526 260.61702,965.02349 260.6171,957.27417 C 260.61702,948.64126 258.50976,942.04759 254.29532,937.49313 C 250.08073,932.87082 244.91456,930.55964 238.79677,930.55956 C 233.83446,930.55964 229.45001,932.05511 225.64339,935.04599 C 219.93336,939.4645 217.07837,946.60198 217.0784,956.45846 M 257.96603,892.6289 C 257.96596,890.24984 257.04828,887.63277 255.213,884.77765 C 252.08603,880.1554 247.36169,877.84422 241.03998,877.84409 C 231.59125,877.84422 224.86162,883.14635 220.85108,893.7505 C 218.6758,899.59655 217.18033,908.22951 216.36465,919.6494 C 219.96735,915.36699 224.14788,912.24009 228.90625,910.2687 C 233.66452,908.29748 239.1026,907.31183 245.22051,907.31173 C 258.33982,907.31183 269.08004,911.76426 277.44119,920.66904 C 285.87012,929.57398 290.08463,940.95997 290.08474,954.82703 C 290.08463,968.62622 285.97208,980.79393 277.74708,991.3302 C 269.52188,1001.8665 256.74239,1007.1346 239.40855,1007.1346 C 220.78306,1007.1346 207.0519,999.35139 198.21503,983.78486 C 191.34944,971.61716 187.91665,955.9147 187.91665,936.67741 C 187.91665,925.39346 188.39248,916.21669 189.34415,909.14709 C 191.04354,896.57162 194.34038,886.10331 199.23468,877.74213 C 203.44917,870.60477 208.95523,864.86079 215.75287,860.51018 C 222.61842,856.15986 230.80953,853.98463 240.32623,853.98448 C 254.05733,853.98463 265.00148,857.51938 273.15869,864.58875 C 281.31573,871.59042 285.90411,880.93713 286.92385,892.6289 L 257.96603,892.6289 M 332.90967,956.45846 C 332.90964,964.4117 335.05088,970.90342 339.33341,975.93361 C 343.61586,980.96387 349.05395,983.47898 355.64768,983.47896 C 362.10535,983.47898 367.16956,981.06583 370.84034,976.23951 C 374.57895,971.34526 376.44829,965.02349 376.44837,957.27417 C 376.44829,948.64126 374.34103,942.04759 370.12659,937.49313 C 365.912,932.87082 360.74582,930.55964 354.62804,930.55956 C 349.66573,930.55964 345.28128,932.05511 341.47466,935.04599 C 335.76463,939.4645 332.90964,946.60198 332.90967,956.45846 M 373.7973,892.6289 C 373.79722,890.24984 372.87955,887.63277 371.04427,884.77765 C 367.9173,880.1554 363.19296,877.84422 356.87125,877.84409 C 347.42252,877.84422 340.69289,883.14635 336.68235,893.7505 C 334.50707,899.59655 333.0116,908.22951 332.19592,919.6494 C 335.79862,915.36699 339.97914,912.24009 344.73751,910.2687 C 349.49579,908.29748 354.93387,907.31183 361.05178,907.31173 C 374.17109,907.31183 384.91131,911.76426 393.27246,920.66904 C 401.70139,929.57398 405.9159,940.95997 405.91601,954.82703 C 405.9159,968.62622 401.80335,980.79393 393.57835,991.3302 C 385.35315,1001.8665 372.57366,1007.1346 355.23982,1007.1346 C 336.61433,1007.1346 322.88317,999.35139 314.0463,983.78486 C 307.18071,971.61716 303.74792,955.9147 303.74792,936.67741 C 303.74792,925.39346 304.22375,916.21669 305.17542,909.14709 C 306.87481,896.57162 310.17165,886.10331 315.06594,877.74213 C 319.28044,870.60477 324.7865,864.86079 331.58414,860.51018 C 338.44968,856.15986 346.6408,853.98463 356.1575,853.98448 C 369.8886,853.98463 380.83274,857.51938 388.98996,864.58875 C 397.14699,871.59042 401.73538,880.93713 402.75512,892.6289 L 373.7973,892.6289"
         style="font-size:208.82260132px;font-style:normal;font-variant:normal;font-weight:normal;font-stretch:normal;fill:#ffffff;fill-opacity:1;stroke:none;stroke-width:1px;stroke-linecap:butt;stroke-linejoin:miter;stroke-opacity:1;font-family:Helvetica;-inkscape-font-specification:Helvetica"
         transform="scale(1.0346967,0.9664668)" />
    </g>
  </g>
</svg>
