<?xml version="1.0" encoding="UTF-8" standalone="no"?>
<!-- Created with Inkscape (http://www.inkscape.org/) -->
<svg
   xmlns:dc="http://purl.org/dc/elements/1.1/"
   xmlns:cc="http://creativecommons.org/ns#"
   xmlns:rdf="http://www.w3.org/1999/02/22-rdf-syntax-ns#"
   xmlns:svg="http://www.w3.org/2000/svg"
   xmlns="http://www.w3.org/2000/svg"
   xmlns:sodipodi="http://sodipodi.sourceforge.net/DTD/sodipodi-0.dtd"
   xmlns:inkscape="http://www.inkscape.org/namespaces/inkscape"
   id="svg2403"
   sodipodi:version="0.32"
   inkscape:version="0.46"
   width="250"
   height="110.66"
   xml:space="preserve"
   sodipodi:docname="PvdD.svg"
   version="1.0"
   inkscape:output_extension="org.inkscape.output.svg.inkscape"><metadata
     id="metadata2408"><rdf:RDF><cc:Work
         rdf:about=""><dc:format>image/svg+xml</dc:format><dc:type
           rdf:resource="http://purl.org/dc/dcmitype/StillImage" /></cc:Work></rdf:RDF></metadata><defs
     id="defs2406"><inkscape:perspective
       sodipodi:type="inkscape:persp3d"
       inkscape:vp_x="0 : 526.18109 : 1"
       inkscape:vp_y="0 : 1000 : 0"
       inkscape:vp_z="744.09448 : 526.18109 : 1"
       inkscape:persp3d-origin="372.04724 : 350.78739 : 1"
       id="perspective2410" /><clipPath
       clipPathUnits="userSpaceOnUse"
       id="clipPath2422"><path
         d="M 0,0 L 595.275,0 L 595.275,841.89 L 0,841.89 L 0,0 z"
         id="path2424" /></clipPath><clipPath
       clipPathUnits="userSpaceOnUse"
       id="clipPath2434"><path
         d="M 0,0 L 595.275,0 L 595.275,841.89 L 0,841.89 L 0,0 z"
         id="path2436" /></clipPath><clipPath
       clipPathUnits="userSpaceOnUse"
       id="clipPath2442"><path
         d="M -381.481,56.683 L -249.046,56.683 L -249.046,235.18 L -381.481,235.18 L -381.481,56.683 z"
         id="path2444" /></clipPath><clipPath
       clipPathUnits="userSpaceOnUse"
       id="clipPath2526"><path
         d="M -381.118,70.03 L -249.673,70.03 L -249.673,218.425 L -381.118,218.425 L -381.118,70.03 z"
         id="path2528" /></clipPath><clipPath
       clipPathUnits="userSpaceOnUse"
       id="clipPath2538"><path
         d="M -381.481,56.683 L -249.046,56.683 L -249.046,235.18 L -381.481,235.18 L -381.481,56.683 z"
         id="path2540" /></clipPath><clipPath
       clipPathUnits="userSpaceOnUse"
       id="clipPath2878"><path
         d="M 0,0 L 595.275,0 L 595.275,841.89 L 0,841.89 L 0,0 z"
         id="path2880" /></clipPath><clipPath
       clipPathUnits="userSpaceOnUse"
       id="clipPath2904"><path
         d="M 167.352,76.474 L 426.015,76.474 L 426.015,425.101 L 167.352,425.101 L 167.352,76.474 z"
         id="path2906" /></clipPath><clipPath
       clipPathUnits="userSpaceOnUse"
       id="clipPath2988"><path
         d="M 169.446,103.927 L 426.015,103.927 L 426.015,393.761 L 169.446,393.761 L 169.446,103.927 z"
         id="path2990" /></clipPath><clipPath
       clipPathUnits="userSpaceOnUse"
       id="clipPath3000"><path
         d="M 167.352,76.474 L 426.015,76.474 L 426.015,425.101 L 167.352,425.101 L 167.352,76.474 z"
         id="path3002" /></clipPath><clipPath
       clipPathUnits="userSpaceOnUse"
       id="clipPath3340"><path
         d="M 0,0 L 595.275,0 L 595.275,841.89 L 0,841.89 L 0,0 z"
         id="path3342" /></clipPath></defs><sodipodi:namedview
     inkscape:window-height="741"
     inkscape:window-width="928"
     inkscape:pageshadow="2"
     inkscape:pageopacity="0.0"
     guidetolerance="10.0"
     gridtolerance="10.0"
     objecttolerance="10.0"
     borderopacity="1.0"
     bordercolor="#666666"
     pagecolor="#ffffff"
     id="base"
     showgrid="false"
     inkscape:zoom="2.3370025"
     inkscape:cx="115.80051"
     inkscape:cy="80.805852"
     inkscape:window-x="1920"
     inkscape:window-y="22"
     inkscape:current-layer="g2412" /><g
     id="g2412"
     inkscape:groupmode="layer"
     inkscape:label="verkiezingsprogramma2010"
     transform="matrix(1.25,0,0,-1.25,-112.56025,177.62031)"><g
       id="g2418"><g
         id="g2420"
         clip-path="url(#clipPath2422)"><text
           transform="matrix(1,0,0,-1,-467.8843,33.648)"
           id="text2426"><tspan
             style="font-size:18px;font-variant:normal;font-weight:bold;font-stretch:normal;writing-mode:lr-tb;fill:#ffffff;fill-opacity:1;fill-rule:nonzero;stroke:none;font-family:Univers;-inkscape-font-specification:Univers-Bold"
             x="0 18.719999 37.439999 55.439999 61.164001 71.082001 84.797997 97.164001 108.882 114.606 125.334 138.06 152.784 167.508 180.23399 193.95 205.668 219.384 225.108 236.826 249.552 261.26999 275.99399 281.71799 296.44199"
             y="0"
             sodipodi:role="line"
             id="tspan2428">www.partijvoordedieren.nl</tspan></text>
</g></g><g
       id="g2430"><g
         id="g2432"
         clip-path="url(#clipPath2434)"><g
           id="g2438"><g
             id="g2440"
             clip-path="url(#clipPath2442)"><g
               id="g2446"
               transform="translate(-273.2442,171.3428)"><path
                 d="M 0,0 C 0,-22.544 -18.276,-40.82 -40.82,-40.82 C -63.364,-40.82 -81.64,-22.544 -81.64,0 C -81.64,22.544 -63.364,40.82 -40.82,40.82 C -18.276,40.82 0,22.544 0,0"
                 style="fill:#ffffff;fill-opacity:1;fill-rule:nonzero;stroke:none"
                 id="path2448" /></g><g
               id="g2450"
               transform="translate(-313.6277,132.9999)"><path
                 d="M 0,0 C -20.264,0 -36.691,16.427 -36.691,36.691 C -36.691,56.955 -20.264,73.383 0,73.383 C 20.264,73.383 36.691,56.955 36.691,36.691 C 36.691,16.427 20.264,0 0,0 M -49.016,-12.324 L 48.733,-12.324 L 48.733,85.425 L -49.016,85.425 L -49.016,-12.324 z"
                 style="fill:#000000;fill-opacity:1;fill-rule:nonzero;stroke:none"
                 id="path2452" /></g><g
               id="g2454"
               transform="translate(-357.3098,109.3699)"><path
                 d="M 0,0 L 0,-5.278 C 0.152,-5.287 0.283,-5.291 0.392,-5.291 C 0.881,-5.291 1.22,-5.169 1.41,-4.926 C 1.6,-4.682 1.695,-4.176 1.695,-3.407 L 1.695,-1.703 C 1.695,-0.995 1.586,-0.533 1.367,-0.319 C 1.147,-0.107 0.692,0 0,0 M -5.379,3.538 L 0.033,3.538 C 1.496,3.538 2.621,3.422 3.408,3.192 C 4.195,2.962 4.787,2.63 5.183,2.194 C 5.578,1.76 5.846,1.233 5.987,0.616 C 6.127,-0.003 6.197,-0.96 6.197,-2.255 L 6.197,-4.059 C 6.197,-5.379 6.061,-6.343 5.789,-6.948 C 5.517,-7.553 5.018,-8.018 4.291,-8.342 C 3.564,-8.666 2.614,-8.828 1.441,-8.828 L 0,-8.828 L 0,-17.159 L -5.379,-17.159 L -5.379,3.538"
                 style="fill:#004126;fill-opacity:1;fill-rule:nonzero;stroke:none"
                 id="path2456" /></g><g
               id="g2458"
               transform="translate(-344.2747,99.5773)"><path
                 d="M 0,0 C -0.256,2.356 -0.523,5.265 -0.802,8.732 C -1.328,4.75 -1.669,1.839 -1.826,0 L 0,0 z M 2.859,13.33 L 5.935,-7.366 L 0.447,-7.366 L 0.159,-3.654 L -1.786,-3.654 L -2.081,-7.366 L -7.643,-7.366 L -4.902,13.33 L 2.859,13.33"
                 style="fill:#004126;fill-opacity:1;fill-rule:nonzero;stroke:none"
                 id="path2460" /></g><g
               id="g2462"
               transform="translate(-332.4553,109.3699)"><path
                 d="M 0,0 L 0,-4.619 C 0.595,-4.619 1.011,-4.535 1.25,-4.369 C 1.488,-4.202 1.608,-3.66 1.608,-2.745 L 1.608,-1.603 C 1.608,-0.945 1.493,-0.513 1.262,-0.308 C 1.032,-0.102 0.611,0 0,0 M -5.379,3.538 L -1.579,3.538 C 0.954,3.538 2.669,3.439 3.566,3.243 C 4.462,3.047 5.193,2.545 5.759,1.74 C 6.324,0.933 6.607,-0.352 6.607,-2.118 C 6.607,-3.73 6.406,-4.814 6.006,-5.368 C 5.606,-5.923 4.818,-6.256 3.643,-6.366 C 4.707,-6.631 5.423,-6.984 5.789,-7.427 C 6.155,-7.869 6.383,-8.276 6.472,-8.646 C 6.562,-9.017 6.607,-10.036 6.607,-11.705 L 6.607,-17.159 L 1.608,-17.159 L 1.608,-10.287 C 1.608,-9.179 1.522,-8.494 1.35,-8.23 C 1.178,-7.966 0.729,-7.834 0,-7.834 L 0,-17.159 L -5.379,-17.159 L -5.379,3.538"
                 style="fill:#004126;fill-opacity:1;fill-rule:nonzero;stroke:none"
                 id="path2464" /></g><g
               id="g2466"
               transform="translate(-313.6014,112.9075)"><path
                 d="M 0,0 L 0,-4.151 L -3.216,-4.151 L -3.216,-20.697 L -8.594,-20.697 L -8.594,-4.151 L -11.781,-4.151 L -11.781,0 L 0,0 z"
                 style="fill:#004126;fill-opacity:1;fill-rule:nonzero;stroke:none"
                 id="path2468" /></g><path
               d="M -307.424,92.211 L -312.803,92.211 L -312.803,112.908 L -307.424,112.908 L -307.424,92.211 z"
               style="fill:#004126;fill-opacity:1;fill-rule:nonzero;stroke:none"
               id="path2470" /><g
               id="g2472"
               transform="translate(-299.2399,112.9075)"><path
                 d="M 0,0 L 0,-13.832 C 0,-15.903 -0.021,-17.235 -0.064,-17.827 C -0.107,-18.419 -0.302,-18.954 -0.651,-19.431 C -0.999,-19.909 -1.467,-20.239 -2.055,-20.422 C -2.644,-20.605 -3.53,-20.697 -4.716,-20.697 L -7.396,-20.697 L -7.396,-17.092 C -7.076,-17.118 -6.845,-17.13 -6.702,-17.13 C -6.324,-17.13 -6.026,-17.037 -5.807,-16.849 C -5.589,-16.662 -5.463,-16.431 -5.429,-16.158 C -5.396,-15.885 -5.378,-15.356 -5.378,-14.571 L -5.378,0 L 0,0"
                 style="fill:#004126;fill-opacity:1;fill-rule:nonzero;stroke:none"
                 id="path2474" /></g><g
               id="g2476"
               transform="translate(-287.7793,103.8109)"><path
                 d="M 0,0 L -1.664,-11.589 L -6.256,-11.589 L -8.044,0 L -4.9,0 L -3.899,-8.484 C -3.822,-7.848 -3.686,-6.326 -3.492,-3.917 C -3.372,-2.575 -3.256,-1.269 -3.144,0 L 0,0"
                 style="fill:#004126;fill-opacity:1;fill-rule:nonzero;stroke:none"
                 id="path2478" /></g><g
               id="g2480"
               transform="translate(-283.0433,100.6103)"><path
                 d="M 0,0 C 0,0.592 -0.034,0.966 -0.1,1.12 C -0.168,1.274 -0.31,1.351 -0.53,1.351 C -0.75,1.351 -0.895,1.274 -0.969,1.12 C -1.042,0.966 -1.078,0.592 -1.078,0 L -1.078,-5.222 C -1.078,-5.769 -1.042,-6.125 -0.969,-6.291 C -0.895,-6.456 -0.752,-6.539 -0.539,-6.539 C -0.32,-6.539 -0.176,-6.464 -0.105,-6.313 C -0.035,-6.161 0,-5.836 0,-5.336 L 0,0 z M 3.514,-0.868 L 3.514,-3.708 C 3.514,-4.752 3.461,-5.517 3.356,-6.003 C 3.251,-6.49 3.027,-6.945 2.682,-7.367 C 2.338,-7.789 1.896,-8.101 1.356,-8.303 C 0.816,-8.503 0.196,-8.604 -0.504,-8.604 C -1.286,-8.604 -1.949,-8.518 -2.492,-8.346 C -3.034,-8.175 -3.455,-7.915 -3.755,-7.568 C -4.056,-7.222 -4.271,-6.802 -4.399,-6.309 C -4.528,-5.817 -4.592,-5.078 -4.592,-4.093 L -4.592,-1.12 C -4.592,-0.043 -4.475,0.799 -4.241,1.406 C -4.009,2.011 -3.588,2.499 -2.982,2.866 C -2.375,3.232 -1.598,3.417 -0.652,3.417 C 0.141,3.417 0.822,3.299 1.391,3.063 C 1.96,2.827 2.399,2.519 2.709,2.14 C 3.017,1.761 3.23,1.371 3.343,0.968 C 3.457,0.566 3.514,-0.046 3.514,-0.868"
                 style="fill:#004126;fill-opacity:1;fill-rule:nonzero;stroke:none"
                 id="path2482" /></g><g
               id="g2484"
               transform="translate(-274.4798,100.6103)"><path
                 d="M 0,0 C 0,0.592 -0.034,0.966 -0.101,1.12 C -0.169,1.274 -0.311,1.351 -0.53,1.351 C -0.75,1.351 -0.896,1.274 -0.969,1.12 C -1.042,0.966 -1.079,0.592 -1.079,0 L -1.079,-5.222 C -1.079,-5.769 -1.042,-6.125 -0.969,-6.291 C -0.896,-6.456 -0.753,-6.539 -0.539,-6.539 C -0.321,-6.539 -0.176,-6.464 -0.106,-6.313 C -0.035,-6.161 0,-5.836 0,-5.336 L 0,0 z M 3.513,-0.868 L 3.513,-3.708 C 3.513,-4.752 3.461,-5.517 3.356,-6.003 C 3.251,-6.49 3.026,-6.945 2.682,-7.367 C 2.337,-7.789 1.896,-8.101 1.356,-8.303 C 0.816,-8.503 0.196,-8.604 -0.504,-8.604 C -1.286,-8.604 -1.949,-8.518 -2.492,-8.346 C -3.034,-8.175 -3.456,-7.915 -3.756,-7.568 C -4.057,-7.222 -4.272,-6.802 -4.4,-6.309 C -4.528,-5.817 -4.593,-5.078 -4.593,-4.093 L -4.593,-1.12 C -4.593,-0.043 -4.475,0.799 -4.242,1.406 C -4.009,2.011 -3.589,2.499 -2.982,2.866 C -2.375,3.232 -1.599,3.417 -0.653,3.417 C 0.141,3.417 0.821,3.299 1.391,3.063 C 1.959,2.827 2.398,2.519 2.708,2.14 C 3.017,1.761 3.229,1.371 3.343,0.968 C 3.456,0.566 3.513,-0.046 3.513,-0.868"
                 style="fill:#004126;fill-opacity:1;fill-rule:nonzero;stroke:none"
                 id="path2486" /></g><g
               id="g2488"
               transform="translate(-266.9517,103.8109)"><path
                 d="M 0,0 L -0.124,-1.529 C 0.394,-0.431 1.144,0.151 2.126,0.216 L 2.126,-3.853 C 1.478,-3.853 1.001,-3.94 0.697,-4.115 C 0.393,-4.291 0.206,-4.534 0.135,-4.846 C 0.065,-5.158 0.031,-5.878 0.031,-7.003 L 0.031,-11.589 L -3.483,-11.589 L -3.483,0 L 0,0"
                 style="fill:#004126;fill-opacity:1;fill-rule:nonzero;stroke:none"
                 id="path2490" /></g><g
               id="g2492"
               transform="translate(-357.3098,87.1887)"><path
                 d="M 0,0 L 0,-13.622 C 0.773,-13.622 1.249,-13.467 1.428,-13.155 C 1.606,-12.844 1.695,-11.997 1.695,-10.616 L 1.695,-2.571 C 1.695,-1.633 1.665,-1.032 1.606,-0.767 C 1.547,-0.503 1.41,-0.309 1.198,-0.185 C 0.986,-0.062 0.587,0 0,0 M -5.379,3.538 L -1.356,3.538 C 1.241,3.538 2.998,3.418 3.913,3.179 C 4.828,2.941 5.524,2.549 6.001,2.003 C 6.478,1.458 6.776,0.85 6.895,0.181 C 7.014,-0.487 7.074,-1.802 7.074,-3.762 L 7.074,-11.01 C 7.074,-12.868 6.987,-14.111 6.813,-14.736 C 6.638,-15.363 6.333,-15.853 5.899,-16.206 C 5.465,-16.56 4.929,-16.807 4.29,-16.948 C 3.651,-17.089 2.689,-17.159 1.403,-17.159 L -5.379,-17.159 L -5.379,3.538"
                 style="fill:#004126;fill-opacity:1;fill-rule:nonzero;stroke:none"
                 id="path2494" /></g><g
               id="g2496"
               transform="translate(-348.5061,90.7263)"><path
                 d="M 0,0 L 8.974,0 L 8.974,-4.151 L 5.379,-4.151 L 5.379,-8.068 L 8.741,-8.068 L 8.741,-12.015 L 5.379,-12.015 L 5.379,-16.545 L 9.325,-16.545 L 9.325,-20.697 L 0,-20.697 L 0,0 z"
                 style="fill:#004126;fill-opacity:1;fill-rule:nonzero;stroke:none"
                 id="path2498" /></g><g
               id="g2500"
               transform="translate(-327.7744,87.1887)"><path
                 d="M 0,0 L 0,-13.622 C 0.773,-13.622 1.249,-13.467 1.428,-13.155 C 1.606,-12.844 1.696,-11.997 1.696,-10.616 L 1.696,-2.571 C 1.696,-1.633 1.665,-1.032 1.606,-0.767 C 1.546,-0.503 1.41,-0.309 1.198,-0.185 C 0.986,-0.062 0.587,0 0,0 M -5.379,3.538 L -1.356,3.538 C 1.241,3.538 2.998,3.418 3.913,3.179 C 4.829,2.941 5.525,2.549 6.002,2.003 C 6.478,1.458 6.776,0.85 6.895,0.181 C 7.015,-0.487 7.074,-1.802 7.074,-3.762 L 7.074,-11.01 C 7.074,-12.868 6.987,-14.111 6.813,-14.736 C 6.638,-15.363 6.333,-15.853 5.899,-16.206 C 5.465,-16.56 4.928,-16.807 4.29,-16.948 C 3.651,-17.089 2.689,-17.159 1.403,-17.159 L -5.379,-17.159 L -5.379,3.538"
                 style="fill:#004126;fill-opacity:1;fill-rule:nonzero;stroke:none"
                 id="path2502" /></g><path
               d="M -313.795,70.03 L -319.174,70.03 L -319.174,90.727 L -313.795,90.727 L -313.795,70.03 z"
               style="fill:#004126;fill-opacity:1;fill-rule:nonzero;stroke:none"
               id="path2504" /><g
               id="g2506"
               transform="translate(-312.1067,90.7263)"><path
                 d="M 0,0 L 8.974,0 L 8.974,-4.151 L 5.379,-4.151 L 5.379,-8.068 L 8.74,-8.068 L 8.74,-12.015 L 5.379,-12.015 L 5.379,-16.545 L 9.325,-16.545 L 9.325,-20.697 L 0,-20.697 L 0,0 z"
                 style="fill:#004126;fill-opacity:1;fill-rule:nonzero;stroke:none"
                 id="path2508" /></g><g
               id="g2510"
               transform="translate(-295.8979,87.1887)"><path
                 d="M 0,0 L 0,-4.619 C 0.595,-4.619 1.011,-4.535 1.25,-4.369 C 1.489,-4.202 1.608,-3.661 1.608,-2.745 L 1.608,-1.603 C 1.608,-0.945 1.493,-0.513 1.263,-0.308 C 1.033,-0.103 0.611,0 0,0 M -5.379,3.538 L -1.579,3.538 C 0.954,3.538 2.669,3.439 3.566,3.243 C 4.462,3.046 5.193,2.545 5.759,1.74 C 6.324,0.934 6.607,-0.353 6.607,-2.118 C 6.607,-3.731 6.406,-4.814 6.006,-5.368 C 5.606,-5.923 4.818,-6.256 3.643,-6.366 C 4.707,-6.631 5.422,-6.984 5.789,-7.427 C 6.155,-7.87 6.383,-8.276 6.472,-8.647 C 6.562,-9.017 6.607,-10.036 6.607,-11.705 L 6.607,-17.159 L 1.608,-17.159 L 1.608,-10.287 C 1.608,-9.18 1.522,-8.494 1.351,-8.23 C 1.179,-7.966 0.729,-7.834 0,-7.834 L 0,-17.159 L -5.379,-17.159 L -5.379,3.538"
                 style="fill:#004126;fill-opacity:1;fill-rule:nonzero;stroke:none"
                 id="path2512" /></g><g
               id="g2514"
               transform="translate(-287.6359,90.7263)"><path
                 d="M 0,0 L 8.974,0 L 8.974,-4.151 L 5.378,-4.151 L 5.378,-8.068 L 8.74,-8.068 L 8.74,-12.015 L 5.378,-12.015 L 5.378,-16.545 L 9.325,-16.545 L 9.325,-20.697 L 0,-20.697 L 0,0 z"
                 style="fill:#004126;fill-opacity:1;fill-rule:nonzero;stroke:none"
                 id="path2516" /></g><g
               id="g2518"
               transform="translate(-264.8817,90.7263)"><path
                 d="M 0,0 L 0,-20.697 L -4.707,-20.697 L -7.512,-11.288 L -7.512,-20.697 L -12.014,-20.697 L -12.014,0 L -7.512,0 L -4.501,-9.319 L -4.501,0 L 0,0 z"
                 style="fill:#004126;fill-opacity:1;fill-rule:nonzero;stroke:none"
                 id="path2520" /></g></g></g><g
           id="g2522"><g
             id="g2524"
             clip-path="url(#clipPath2526)"><g
               id="g2530"
               transform="translate(-341.474,165.3285)"><path
                 d="M 0,0 L 0.524,-4.352 L 1.336,-16.555 L 2.534,-13.787 C 2.534,-13.787 2.394,-21.129 3.333,-22.74 C 4.273,-24.35 6.643,-26.098 7.465,-26.748 C 7.956,-27.136 9.793,-27.864 9.793,-27.864 C 6.159,-28.167 -7.482,-32.207 -12.176,-37.809 C -11.267,-38.566 -10.495,-40.37 -10.495,-40.37 C -8.83,-39.311 -0.736,-31.485 9.862,-29.971 C 7.742,-31.788 2.299,-36.567 0.881,-40.288 C 2.698,-41.348 5.125,-41.183 6.184,-40.577 C 6.79,-38.458 8.131,-31.899 14.338,-30.082 C 14.338,-30.082 14.817,-30.75 15.233,-31.28 C 17.104,-33.661 27.865,-37.102 33.001,-34.819 C 33.683,-34.517 35.986,-33.125 36.554,-33.125 C 37.122,-33.125 41.067,-35.65 44.557,-34.93 C 46.212,-34.589 46.84,-34.692 49.57,-33.044 C 50.247,-33.58 50.658,-34.214 52.379,-36.032 C 52.379,-36.032 51.028,-35.112 50.547,-35.633 C 50.067,-36.153 51.718,-37.299 51.718,-37.299 C 51.718,-37.299 49.796,-36.263 49.556,-36.583 C 49.315,-36.904 50.771,-38.475 50.771,-38.475 C 50.771,-38.475 49.025,-37.237 48.784,-37.437 C 48.544,-37.638 49.289,-38.837 49.289,-38.837 C 49.289,-38.837 48.011,-37.907 47.49,-38.388 C 46.969,-38.868 48.527,-40.279 48.527,-40.279 C 48.527,-40.279 45.88,-39.402 45.52,-40.124 C 45.16,-40.845 47.242,-41.997 47.242,-41.997 C 47.242,-41.997 44.496,-41.773 44.336,-42.534 C 44.175,-43.295 46.594,-43.884 46.594,-43.884 C 46.594,-43.884 43.139,-43.713 43.22,-44.835 C 43.3,-45.956 45.396,-45.826 45.396,-45.826 C 45.396,-45.826 43.286,-45.976 43.206,-46.377 C 43.125,-46.778 45.809,-47.052 45.809,-47.052 C 45.809,-47.052 43.777,-47.749 43.977,-48.471 C 44.177,-49.192 46.566,-48.829 46.566,-48.829 C 46.566,-48.829 43.783,-49.54 44.184,-50.662 C 44.585,-51.784 47.186,-51.103 47.186,-51.103 C 47.186,-51.103 44.436,-52.709 45.038,-53.871 C 45.638,-55.033 48.343,-53.389 48.343,-53.389 C 48.343,-53.389 46.952,-54.585 47.393,-55.386 C 47.834,-56.188 50.217,-54.299 50.217,-54.299 C 50.217,-54.299 48.892,-56.48 49.253,-57.081 C 49.815,-58.019 51.525,-55.938 51.525,-55.938 C 51.525,-55.938 50.678,-57.015 51.76,-57.976 C 52.842,-58.938 54.514,-56.819 54.514,-56.819 C 54.514,-56.819 53.71,-59.238 54.831,-59.519 C 55.953,-59.8 56.219,-57.507 56.219,-57.507 C 56.219,-57.507 56.184,-59.456 58.027,-59.216 C 59.87,-58.976 59.665,-56.866 59.665,-56.866 C 59.665,-56.866 60.187,-57.915 61.429,-57.715 C 62.671,-57.514 62.229,-56.104 62.229,-56.104 C 62.229,-56.104 62.626,-57.269 63.908,-57.109 C 65.19,-56.949 64.512,-54.702 64.512,-54.702 C 64.512,-54.702 64.856,-56.391 66.098,-55.91 C 67.34,-55.429 66.677,-53.417 66.677,-53.417 C 66.677,-53.417 67.105,-54.736 68.068,-54.299 C 68.977,-53.886 67.944,-52.095 67.944,-52.095 C 67.944,-52.095 69.44,-53.997 71.043,-52.715 C 72.645,-51.433 70.162,-49.814 70.162,-49.814 C 70.162,-49.814 71.6,-51.091 72.241,-50.29 C 72.882,-49.489 70.803,-47.691 70.803,-47.691 C 70.803,-47.691 71.629,-48.202 72.159,-47.246 C 72.586,-46.475 70.547,-45.331 70.547,-45.331 C 70.547,-45.331 72.046,-46.1 72.737,-45.083 C 73.693,-43.677 71.126,-42.934 71.126,-42.934 C 71.126,-42.934 72.73,-42.624 72.93,-41.943 C 73.13,-41.261 72.294,-40.674 71.774,-40.674 C 72.025,-40.522 72.449,-40.033 72.246,-39.477 C 72.041,-38.922 70.642,-39.075 70.465,-39.104 C 71.226,-38.783 72.045,-38.195 71.604,-37.154 C 71.163,-36.112 69.926,-36.819 69.405,-36.859 C 69.565,-36.699 71.33,-35.562 70.809,-34.6 C 70.288,-33.639 68.578,-34.66 67.696,-35.261 C 67.977,-34.82 69.97,-33.886 69.129,-32.644 C 68.287,-31.402 66.015,-34.3 65.575,-34.82 C 66.777,-33.258 66.482,-33.04 65.961,-32.479 C 65.44,-31.918 64.709,-32.644 63.868,-33.966 C 64.67,-32.083 64.168,-31.012 63.606,-30.895 C 62.023,-30.564 61.61,-33.305 61.61,-33.305 C 61.61,-33.305 61.719,-31.031 61.278,-30.991 C 60.837,-30.951 60.425,-31.088 60.37,-33.071 C 58.868,-28.277 56.474,-31.899 56.776,-34.473 C 56.055,-33.392 55.503,-32.217 54.653,-32.63 C 54.342,-32.781 54.818,-34.82 54.818,-34.82 C 54.474,-34.545 54.088,-34.489 53.936,-34.407 C 52.959,-33.236 52.124,-32.414 51.347,-31.611 C 55.312,-28.315 54.383,-24.831 54.294,-23.14 C 54.143,-20.264 51.008,-10.055 52.16,-8.498 C 52.64,-7.849 53.889,-6.002 54.019,-3.926 C 54.146,-1.89 53.565,-0.797 53.496,-0.51 C 53.267,0.437 54.038,0.912 54.57,0.785 C 55.201,0.634 55.342,0.308 56.932,-0.635 C 59.928,-2.411 68.543,-2.066 70.755,-1.598 C 78.44,0.027 81.605,1.911 84.804,5.109 C 86.545,6.85 87.87,7.749 88.904,8.878 C 89.604,9.641 90.672,11.743 90.672,13.649 C 90.672,18.114 89.344,18.613 88.482,19.626 C 87.735,20.503 86.781,21.768 86.14,22.339 C 85.498,22.911 81.336,26.06 78.66,26.857 C 76.422,27.524 78.314,28.225 76.346,28.703 C 74.994,29.031 70.747,30.399 66.46,29.432 C 65.041,29.112 64.961,30.045 63.647,29.873 C 60.054,29.404 56.862,26.871 55.755,26.182 C 54.945,25.678 52.968,24.235 52.013,23.489 C 51.675,23.224 51.57,23.133 51.468,23.045 C 50.58,22.276 49.742,23.718 50.803,24.693 C 50.945,24.824 50.933,24.833 50.958,24.888 C 51.219,25.48 48.558,25.041 49.63,25.617 C 50.803,26.247 58.348,31.678 59.804,33.096 C 62.287,35.513 65.475,39.6 66.499,42.159 C 67.522,44.717 66.112,45.13 65.039,44.555 C 63.21,43.575 56.264,40.07 54.144,39.046 C 52.024,38.023 44.14,35.013 41.363,34.501 C 41.671,35.257 43.102,36.156 43.607,36.829 C 42.022,36.718 39.847,36.154 39.847,36.154 C 39.847,36.154 40.376,37.6 40.637,38.972 C 39.527,37.861 37.651,37.838 37.651,37.838 C 37.651,37.838 37.831,39.748 38.01,41.241 C 37.293,40.285 36.218,39.211 35.343,38.357 C 35.234,38.251 33.814,39.831 35.274,42.806 C 33.47,41.966 32.354,39.872 32.354,39.872 C 32.354,39.872 32.536,42.046 31.621,43.092 C 31.752,41.785 29.613,39.735 29.613,39.735 C 29.613,39.735 29.838,42.497 28.883,44.059 C 28.883,41.838 27.052,40.23 27.052,40.23 C 27.052,40.23 26.02,41.487 25.89,42.793 C 25.367,41.682 23.953,41.043 23.953,41.043 C 23.953,41.043 22.427,42.495 23.084,44.584 C 20.636,43.51 20.454,40.299 20.454,40.299 L 18.471,41.319 L 18.705,39.569 C 18.705,39.569 16.223,41.425 15.024,41.539 C 15.439,41.098 16.749,37.779 16.749,37.779 C 16.749,37.779 13.421,38.733 12.245,38.798 C 12.376,38.276 13.086,35.933 13.086,35.933 C 13.086,35.933 10.854,36.364 9.931,38.096 C 8.934,39.968 8.334,41.305 8.334,41.305 C 8.334,41.305 7.557,37.106 9.436,34.556 C 6.336,35.571 -0.553,39.956 -3.566,42.158 C -5.862,43.836 -7.747,45.539 -8.772,45.12 C -9.544,44.804 -9.742,41.402 -7.491,37.269 C -5.237,33.13 1.857,25.484 2.563,24.791 C 3.269,24.098 1.158,24.678 0.662,23.799 C 0.166,22.92 1.366,22.631 1.075,22.077 C 0.785,21.524 0.133,21.491 -0.302,21.678 C -0.737,21.865 -8.759,27.661 -13.167,28.221 C -15.463,28.512 -15.17,27.579 -16.28,27.683 C -21.309,28.157 -24.012,26.816 -25.288,26.196 C -27.126,25.303 -25.917,25.269 -27.119,24.722 C -29.4,23.686 -32.629,21.913 -33.662,20.122 C -34.186,19.213 -34.937,17.916 -37.16,15.838 C -38.744,14.359 -38.51,13.302 -38.496,12.96 C -38.37,9.931 -33.818,2.742 -29.02,0.578 C -26.833,-0.408 -21.404,-2.658 -18.318,-3.127 C -15.367,-3.575 -12.561,-3.627 -10.192,-3.306 C -5.356,-2.649 -2.126,-0.794 -1.694,-0.565 C -0.299,0.175 0,0 0,0 z"
                 style="fill:none;stroke:#ffffff;stroke-width:2.2579999;stroke-linecap:butt;stroke-linejoin:miter;stroke-miterlimit:4;stroke-dasharray:none;stroke-opacity:1"
                 id="path2532" /></g></g></g><g
           id="g2534"><g
             id="g2536"
             clip-path="url(#clipPath2538)"><g
               id="g2542"
               transform="translate(-285.6633,191.5527)"><path
                 d="M 0,0 C -1.096,-0.682 -3.886,-2.852 -4.248,-3.179 C -5.107,-3.954 -5.998,-2.536 -4.905,-1.522 C -3.959,-0.643 -7.25,-1.228 -6.077,-0.598 C -4.905,0.032 2.593,5.497 4.049,6.915 C 6.532,9.332 9.675,13.354 10.699,15.912 C 11.722,18.471 10.348,18.923 9.276,18.348 C 7.447,17.368 0.551,13.884 -1.57,12.86 C -3.689,11.837 -11.662,8.798 -14.44,8.287 C -14.131,9.043 -12.707,9.946 -12.201,10.619 C -13.786,10.508 -15.959,9.948 -15.959,9.948 C -15.959,9.948 -15.376,11.435 -15.115,12.808 C -16.225,11.697 -18.219,11.554 -18.219,11.554 L -17.741,15.076 C -17.741,15.076 -19.473,12.987 -20.453,12.133 C -20.516,12.272 -22.018,13.448 -20.516,16.584 C -22.345,15.8 -23.456,13.644 -23.456,13.644 C -23.456,13.644 -23.275,15.822 -24.189,16.867 C -24.059,15.561 -26.224,13.475 -26.224,13.475 C -26.224,13.475 -26.069,16.127 -26.918,17.825 C -26.918,15.604 -28.774,14.012 -28.774,14.012 C -28.774,14.012 -29.731,15.262 -29.861,16.569 C -30.384,15.458 -31.861,14.817 -31.861,14.817 C -31.861,14.817 -33.742,16.33 -32.369,18.36 C -34.783,18.471 -35.361,14.081 -35.361,14.081 L -37.363,15.085 L -37.095,13.341 C -37.095,13.341 -39.648,15.2 -40.847,15.315 C -40.432,14.874 -39.042,11.558 -39.042,11.558 C -39.042,11.558 -42.402,12.534 -43.578,12.599 C -43.447,12.077 -42.729,9.724 -42.729,9.724 C -42.729,9.724 -44.942,10.149 -45.864,11.881 C -46.862,13.753 -47.498,15.082 -47.498,15.082 C -47.498,15.082 -48.237,10.867 -46.358,8.317 C -49.458,9.333 -56.318,13.71 -59.331,15.912 C -61.627,17.59 -63.57,19.328 -64.595,18.91 C -65.366,18.594 -65.53,15.147 -63.279,11.015 C -61.024,6.876 -53.947,-0.744 -53.241,-1.437 C -52.535,-2.13 -54.651,-1.52 -55.147,-2.399 C -55.642,-3.278 -54.453,-3.591 -54.744,-4.144 C -55.035,-4.697 -55.652,-4.734 -56.086,-4.546 C -56.521,-4.359 -64.56,1.433 -68.968,1.993 C -71.264,2.285 -71.029,1.342 -72.139,1.446 C -77.168,1.92 -79.792,0.608 -81.067,-0.011 C -82.905,-0.904 -81.723,-0.959 -82.926,-1.505 C -88.424,-4.004 -89.105,-5.587 -89.527,-6.185 C -89.857,-6.651 -90.648,-8.251 -92.984,-10.433 C -94.568,-11.913 -94.31,-12.97 -94.296,-13.312 C -94.17,-16.341 -89.89,-22.761 -85.918,-25.06 C -84.13,-26.095 -77.158,-29.013 -73.311,-29.482 C -69.454,-29.953 -63.997,-30.141 -57.489,-26.76 C -56.163,-26.07 -55.815,-26.221 -55.815,-26.221 L -55.281,-30.582 L -54.476,-42.795 L -53.268,-39.976 C -53.268,-39.976 -53.402,-47.357 -52.462,-48.968 C -51.523,-50.578 -49.124,-52.344 -48.302,-52.994 C -47.811,-53.382 -45.989,-54.087 -45.989,-54.087 C -49.623,-54.39 -63.284,-58.419 -67.978,-64.021 C -67.069,-64.778 -66.312,-66.595 -66.312,-66.595 C -64.647,-65.535 -56.529,-57.688 -45.931,-56.174 C -48.05,-57.991 -53.51,-62.768 -54.928,-66.49 C -53.111,-67.55 -50.688,-67.398 -49.629,-66.793 C -49.023,-64.673 -47.69,-58.116 -41.482,-56.3 C -41.482,-56.3 -40.99,-56.981 -40.573,-57.511 C -38.703,-59.892 -27.844,-63.276 -22.708,-60.993 C -22.027,-60.69 -19.832,-59.346 -19.264,-59.346 C -18.696,-59.346 -14.692,-61.864 -11.202,-61.145 C -9.546,-60.803 -8.98,-60.906 -6.251,-59.258 C -5.273,-60.031 -4.895,-60.792 -3.38,-62.306 C -3.38,-62.306 -4.79,-61.333 -5.271,-61.853 C -5.751,-62.374 -4.056,-63.548 -4.056,-63.548 C -4.056,-63.548 -6.032,-62.494 -6.272,-62.815 C -6.512,-63.135 -5.03,-64.738 -5.03,-64.738 C -5.03,-64.738 -6.793,-63.456 -7.033,-63.656 C -7.274,-63.856 -6.512,-65.098 -6.512,-65.098 C -6.512,-65.098 -7.794,-64.137 -8.316,-64.618 C -8.837,-65.098 -7.274,-66.541 -7.274,-66.541 C -7.274,-66.541 -9.919,-65.619 -10.279,-66.341 C -10.64,-67.062 -8.556,-68.224 -8.556,-68.224 C -8.556,-68.224 -11.321,-67.984 -11.481,-68.744 C -11.641,-69.506 -9.197,-70.107 -9.197,-70.107 C -9.197,-70.107 -12.683,-69.947 -12.602,-71.068 C -12.522,-72.19 -10.319,-72.03 -10.319,-72.03 C -10.319,-72.03 -12.534,-72.197 -12.614,-72.598 C -12.694,-72.999 -9.998,-73.272 -9.998,-73.272 C -9.998,-73.272 -12.042,-73.953 -11.841,-74.674 C -11.641,-75.395 -9.237,-75.035 -9.237,-75.035 C -9.237,-75.035 -12.042,-75.756 -11.641,-76.878 C -11.24,-77.999 -8.636,-77.318 -8.636,-77.318 C -8.636,-77.318 -11.401,-78.921 -10.8,-80.083 C -10.199,-81.245 -7.475,-79.602 -7.475,-79.602 C -7.475,-79.602 -8.877,-80.804 -8.436,-81.606 C -7.995,-82.407 -5.591,-80.523 -5.591,-80.523 C -5.591,-80.523 -6.913,-82.687 -6.553,-83.288 C -5.991,-84.226 -4.269,-82.126 -4.269,-82.126 C -4.269,-82.126 -5.151,-83.248 -4.069,-84.209 C -2.987,-85.171 -1.305,-83.048 -1.305,-83.048 C -1.305,-83.048 -2.105,-85.451 -0.984,-85.732 C 0.137,-86.013 0.418,-83.769 0.418,-83.769 C 0.418,-83.769 0.379,-85.692 2.221,-85.451 C 4.064,-85.211 3.864,-83.127 3.864,-83.127 C 3.864,-83.127 4.384,-84.129 5.626,-83.929 C 6.869,-83.728 6.428,-82.366 6.428,-82.366 C 6.428,-82.366 6.829,-83.488 8.111,-83.328 C 9.393,-83.168 8.711,-80.964 8.711,-80.964 C 8.711,-80.964 9.072,-82.607 10.314,-82.126 C 11.556,-81.645 10.817,-79.52 10.817,-79.52 C 10.817,-79.52 11.275,-80.964 12.237,-80.523 C 13.199,-80.083 12.087,-78.266 12.087,-78.266 C 12.087,-78.266 13.64,-80.203 15.242,-78.921 C 16.844,-77.638 14.361,-76.076 14.361,-76.076 C 14.361,-76.076 15.803,-77.318 16.444,-76.517 C 17.085,-75.716 15.001,-73.953 15.001,-73.953 C 15.001,-73.953 15.916,-74.43 16.364,-73.432 C 16.718,-72.644 14.674,-71.529 14.674,-71.529 C 14.674,-71.529 16.269,-72.304 16.925,-71.349 C 17.888,-69.947 15.322,-69.145 15.322,-69.145 C 15.322,-69.145 16.925,-68.825 17.125,-68.143 C 17.325,-67.462 16.484,-66.901 15.963,-66.901 C 16.215,-66.749 16.648,-66.295 16.444,-65.739 C 16.24,-65.184 14.818,-65.309 14.641,-65.339 C 15.402,-65.018 16.244,-64.457 15.803,-63.416 C 15.362,-62.374 14.08,-63.055 13.56,-63.095 C 13.72,-62.935 15.523,-61.773 15.001,-60.812 C 14.481,-59.85 12.758,-60.892 11.877,-61.493 C 12.157,-61.052 14.161,-60.09 13.319,-58.848 C 12.478,-57.606 10.194,-60.531 9.754,-61.052 C 10.955,-59.49 10.675,-59.249 10.154,-58.688 C 9.633,-58.127 8.871,-58.917 8.03,-60.239 C 8.831,-58.356 8.391,-57.246 7.83,-57.125 C 6.139,-56.763 5.8,-59.605 5.8,-59.605 C 5.8,-59.605 5.907,-57.246 5.466,-57.206 C 5.026,-57.166 4.584,-57.308 4.546,-59.31 C 3.032,-54.466 0.672,-58.162 0.975,-60.735 C 0.254,-59.654 -0.293,-58.435 -1.144,-58.848 C -1.454,-58.999 -0.987,-61.048 -0.987,-61.048 C -1.085,-60.921 -1.685,-60.685 -1.886,-60.645 C -2.762,-59.558 -3.094,-59.218 -4.449,-57.817 C -0.484,-54.521 -1.423,-51.026 -1.512,-49.335 C -1.663,-46.458 -4.802,-36.243 -3.632,-34.699 C -1.259,-31.57 -1.601,-28.683 -2.186,-27.136 C -2.433,-26.483 -2.431,-26.04 -2.045,-25.672 C -1.281,-24.943 -0.38,-25.925 1.216,-26.859 C 3.929,-28.447 12.242,-28.35 14.56,-27.883 C 26.881,-25.4 27.327,-22.047 31.212,-19.133 C 33.47,-17.44 34.599,-15.182 34.787,-13.3 C 35.231,-8.857 33.567,-7.676 32.705,-6.663 C 31.958,-5.786 31.012,-4.501 30.37,-3.929 C 29.728,-3.358 25.539,-0.15 22.863,0.647 C 20.625,1.314 22.501,2.004 20.534,2.482 C 19.182,2.81 15.03,4.175 10.743,3.208 C 9.324,2.888 9.173,3.835 7.858,3.663 C 4.265,3.194 1.107,0.689 0,0"
                 style="fill:#000000;fill-opacity:1;fill-rule:nonzero;stroke:none"
                 id="path2544" /></g><g
               id="g2546"
               transform="translate(-327.4732,135.9117)"><path
                 d="M 0,0 C -6.053,-2.264 -8.242,-8.253 -8.848,-10.373 C -9.982,-10.793 -10.192,-10.877 -12.082,-10.415 C -10.384,-6.844 -4.592,-1.381 -2.472,0.435 C -14.654,-0.909 -22.839,-8.624 -24.504,-9.684 C -24.504,-9.684 -24.33,-9.142 -25.239,-8.386 C -20.576,-3.639 -11.744,0.052 -0.784,1.886 C -0.367,1.428 -0.467,1.492 0,0"
                 style="fill:#00a176;fill-opacity:1;fill-rule:nonzero;stroke:none"
                 id="path2548" /></g><g
               id="g2550"
               transform="translate(-288.8922,129.7953)"><path
                 d="M 0,0 C -1.062,1.218 -2.967,3.516 -4.717,5.061 C -3.811,5.18 -3.217,5.494 -3.217,5.494 C -2.041,4.158 -0.372,2.4 0.712,1.177 C 0.124,1.317 -0.635,0.914 0,0"
                 style="fill:#00a176;fill-opacity:1;fill-rule:nonzero;stroke:none"
                 id="path2552" /></g><g
               id="g2554"
               transform="translate(-378.196,178.4185)"><path
                 d="M 0,0 C 0.5,-2.706 2.694,-6.08 6.239,-8.916 C 8.12,-10.421 15.082,-13.902 20.821,-14.372 C 23.153,-14.563 32.045,-13.803 34.298,-11.622 C 36.985,-9.02 38.699,-12.07 38.699,-12.07 L 38.997,-16.546 L 39.147,-24.081 L 40.191,-21.992 C 40.191,-21.992 40.744,-31.85 41.608,-33.332 C 42.473,-34.814 44.274,-36.687 45.137,-37.116 C 47.278,-38.181 51.186,-39.416 52.65,-41.389 C 54.31,-43.626 63.962,-46.577 68.687,-44.477 C 69.314,-44.198 71.334,-42.962 71.856,-42.962 C 72.379,-42.962 76.063,-45.279 79.274,-44.616 C 80.798,-44.302 81.319,-44.397 83.83,-42.88 L 85.488,-41.554 C 89.137,-38.522 88.272,-35.306 88.19,-33.75 C 88.051,-31.103 85.436,-22.019 86.512,-20.599 C 88.695,-17.72 89.247,-16.277 87.401,-12.899 C 87.401,-12.899 87.391,-12.838 87.812,-11.962 C 88.981,-9.533 90.978,-9.587 93.756,-11.473 C 96.547,-13.367 104.176,-13.526 108.154,-12.443 C 116.287,-10.229 118.955,-7.449 121.205,-5.435 C 122.183,-4.558 125.062,-2.518 125.611,0.762 L 88.161,7.849 C 86.594,6.581 84.546,8.679 85.4,10.013 C 86.254,11.347 80.989,11.579 82.067,12.158 C 83.146,12.738 90.274,17.117 91.663,18.368 C 94.486,20.908 98.061,23.542 99.426,26.287 C 100.555,28.557 99.424,28.681 98.437,28.152 C 96.754,27.25 90.133,24.107 88.183,23.166 C 86.232,22.224 77.081,18.744 75.387,19.779 C 75.672,20.475 76.452,21.564 76.918,22.183 C 75.459,22.081 74.943,22.374 74.943,22.374 C 74.943,22.756 75.262,23.075 75.453,23.521 C 74.314,23.374 73.537,23.434 73.537,23.434 C 73.528,23.48 73.179,23.553 73.418,25.404 C 72.403,23.971 72.043,23.485 71.985,23.613 C 71.928,23.741 70.504,24.689 70.373,26.18 C 69.418,25.289 68.638,24.158 68.638,24.158 C 68.638,24.158 68.256,25.368 67.556,26.514 C 67.046,25.304 65.452,24.044 65.452,24.044 C 65.452,24.044 65.68,25.408 65.299,27.255 C 64.661,25.345 63.106,24.538 63.106,24.538 C 62.591,25.767 62.209,26.51 62.134,27.255 C 61.298,26.3 60.283,26.061 60.283,26.061 C 60.283,26.061 59.029,26.718 58.91,28.091 C 58.134,26.897 58.002,25.113 58.002,25.113 L 56.522,26.24 L 56.41,24.412 C 56.41,24.412 55.507,25.317 54.552,25.763 C 55.029,24.867 54.79,23.315 54.79,23.315 C 54.79,23.315 52.461,23.588 51.379,23.648 C 51.499,23.167 51.697,21.355 51.697,21.355 C 51.697,21.355 48.959,21.292 47.685,22.12 C 47.685,21.738 47.596,20.622 48.551,19.285 C 43.824,19.779 37,24.244 34.228,26.27 C 32.115,27.814 30.584,29.337 29.641,28.952 C 28.931,28.661 29.853,25.635 32.322,22.178 C 34.843,18.649 41.454,11.839 42.109,11.207 C 43.599,9.77 39.601,10.58 39.287,9.979 C 38.857,9.155 39.598,8.933 39.574,8.359 C 39.547,7.709 38.7,6.054 36.778,6.294 L 0,0"
                 style="fill:#ffffff;fill-opacity:1;fill-rule:nonzero;stroke:none"
                 id="path2556" /></g><g
               id="g2558"
               transform="translate(-375.4724,175.6853)"><path
                 d="M 0,0 C 0.318,-0.831 1.116,-1.051 2.809,-1.051 C 4.503,-1.051 5.556,-3.148 6.808,-3.313 C 9.942,-3.727 11.888,-7.264 12.876,-7.123 C 13.864,-6.982 16.545,-8.111 18.38,-7.97 C 20.214,-7.829 22.331,-6.841 24.448,-7.123 C 26.565,-7.405 26.988,-7.829 28.117,-7.688 C 29.246,-7.547 31.222,-6.982 32.21,-6.841 C 33.197,-6.7 33.762,-5.994 33.762,-5.994 L 34.044,-2.043 L 19.791,1.767 L 8.219,2.191 L -0.107,1.909 L 0,0"
                 style="fill:#ecc19b;fill-opacity:1;fill-rule:nonzero;stroke:none"
                 id="path2560" /></g><g
               id="g2562"
               transform="translate(-253.9627,177.2435)"><path
                 d="M 0,0 C -1.171,-0.426 -3.259,-1.427 -3.75,-1.434 C -5.007,-1.451 -7.762,-2.855 -9.02,-4.894 C -9.4,-5.51 -11.227,-6.802 -11.813,-7.068 C -12.398,-7.334 -15.301,-8.568 -16.579,-8.355 C -17.857,-8.141 -21.438,-7.721 -22.236,-8.04 C -23.035,-8.359 -25.416,-9.632 -26.641,-8.78 C -27.865,-7.929 -27.286,-7.09 -28.717,-7.343 C -31.742,-7.878 -34.959,-6.677 -34.959,-6.677 L -35.176,-3.597 L -32.443,-2.019 L -32.071,-0.103 L -15.302,1.654 L -4.016,1.813 L 0.775,1.441 L 0,0"
                 style="fill:#ecc19b;fill-opacity:1;fill-rule:nonzero;stroke:none"
                 id="path2564" /></g><g
               id="g2566"
               transform="translate(-299.0178,175.6421)"><path
                 d="M 0,0 L -0.611,0.611 L -0.293,2.286 L 0.424,3.572 L 0.85,1.781 L 1.913,-0.213 L 0,0 z M 45.827,7.01 C 45.252,7.733 44.668,8.152 44.045,9.008 C 41.547,12.436 36.036,14.94 34.755,15.22 C 31.65,15.897 34.377,16.3 32.649,17.002 C 29.56,18.257 25.266,18.027 23.978,17.665 C 21.037,16.84 22.265,18.003 20.929,17.812 C 18.283,17.434 14.934,15.22 13.638,14.247 C 12.687,13.534 9.331,10.935 8.982,10.653 C 7.416,9.384 5.368,11.482 6.222,12.816 C 7.076,14.15 1.81,14.382 2.889,14.961 C 3.968,15.541 5.884,19.175 5.884,19.175 L 1.775,19.707 L 2.984,22.608 C 2.984,22.608 -0.498,21.97 -2.191,23.005 C -1.907,23.701 -3.856,20.34 -3.391,20.959 C -4.731,18.842 -6.072,15.385 -6.072,15.385 L -7.695,12.562 L -8.048,10.304 L -7.342,7.482 L -6.354,4.377 L -5.296,1.696 L -4.52,0.073 L -5.86,-0.703 L -5.155,-4.09 L -4.59,-6.489 L -0.851,-5.924 L 2.466,-5.36 L 6.064,-6.489 L 7.899,-8.112 L 8.322,-8.535 C 8.322,-8.535 7.817,-9.686 8.634,-9.159 C 10.189,-8.154 9.972,-5.156 9.845,-3.184 C 9.743,-1.604 17.498,2.385 20.106,-0.985 C 21.164,-2.354 25.025,0.848 26.597,0.285 C 28.169,-0.279 34.431,-0.497 38.451,1.837 C 39.417,2.398 43.516,1.004 44.915,1.576 C 46.131,2.074 46.246,2.26 46.433,3.565 C 46.62,4.871 46.323,6.387 45.827,7.01 M -33.568,-0.499 L -33.985,-1.165 L -35.123,-1.527 L -36.79,-1.86 L -38.513,-1.804 L -35.78,0.404 L -34.373,3.502 L -33.762,1.863 L -33.457,0.501 L -33.568,-0.499 z M -26.464,17.122 C -26.464,16.74 -31.582,23.399 -30.627,22.061 C -35.213,21.426 -37.471,21.356 -37.471,21.356 L -35.284,17.687 L -37.965,17.193 C -37.965,17.193 -37.291,16.443 -37.119,15.64 C -36.975,14.977 -37.365,14.27 -37.069,13.984 C -35.579,12.546 -39.578,13.356 -39.892,12.755 C -40.321,11.932 -39.58,11.709 -39.604,11.135 C -39.631,10.485 -40.479,8.83 -42.4,9.071 C -43.864,9.254 -47.044,12.151 -49.445,13.545 C -51.207,14.569 -52.661,15.403 -55.224,16.03 C -57.654,16.624 -57.186,15.454 -58.032,15.598 C -60.895,16.084 -62.576,15.957 -64.081,15.706 C -64.834,15.58 -66.764,14.816 -67.322,14.517 C -68.834,13.707 -67.836,13.328 -68.672,13.113 C -70.562,12.627 -74.496,9.978 -75.099,9.278 C -75.721,8.558 -75.47,8.417 -76.287,7.388 C -77.104,6.359 -79.204,4.634 -79.199,3.165 C -79.196,2.535 -79.228,2.249 -77.408,1.599 C -76.363,1.226 -76.774,-0.239 -75.984,-0.424 C -71.048,-1.577 -66.361,1.469 -65.702,0.151 C -64.843,-1.567 -58.194,0.226 -57.793,-0.871 C -57.035,-2.942 -51.686,-1.106 -50.454,-1.576 C -49.208,-2.052 -43.178,-5.47 -42.689,-3.708 C -42.79,-5.022 -40.479,-9.293 -40.479,-9.293 L -40.181,-13.769 L -40.032,-21.304 L -38.987,-19.215 C -38.987,-19.215 -38.434,-29.074 -37.57,-30.555 C -36.706,-32.038 -34.905,-33.911 -34.041,-34.34 C -31.9,-35.404 -27.992,-36.64 -26.529,-38.612 C -26.529,-38.612 -28.44,-36.151 -28.863,-35.233 L -29.639,-32.27 L -28.722,-29.165 L -27.028,-25.708 L -24.912,-21.686 L -24.418,-18.722 L -26.041,-14.348 L -25.758,-9.408 L -23.994,-6.445 L -24.135,-5.81 L -24.841,-3.693 L -25.688,-1.576 L -25.617,1.458 L -24.206,4.492 L -22.865,7.244 L -22.654,9.784 L -24.771,13.1 C -24.771,13.1 -25.829,15.499 -26.464,17.122"
                 style="fill:#da8c34;fill-opacity:1;fill-rule:nonzero;stroke:none"
                 id="path2568" /></g><g
               id="g2570"
               transform="translate(-288.5879,130.6511)"><path
                 d="M 0,0 C -0.568,-0.183 0.236,-1.483 1.053,-2.008 C 1.053,-2.008 -1.402,-1.019 -1.834,-1.488 C -2.267,-1.957 -0.052,-3.223 -0.052,-3.223 C -0.052,-3.223 -2.502,-2.303 -2.718,-2.592 C -2.935,-2.88 -1.314,-4.643 -1.314,-4.643 C -1.314,-4.643 -3.322,-3.264 -3.539,-3.444 C -3.755,-3.624 -2.86,-5.054 -2.86,-5.054 C -2.86,-5.054 -4.221,-3.879 -4.69,-4.312 C -5.159,-4.745 -3.525,-6.202 -3.525,-6.202 C -3.525,-6.202 -6.117,-5.241 -6.442,-5.89 C -6.767,-6.54 -4.422,-7.752 -4.422,-7.752 C -4.422,-7.752 -7.371,-7.352 -7.515,-8.037 C -7.659,-8.722 -4.77,-9.488 -4.77,-9.488 C -4.77,-9.488 -8.582,-9.173 -8.509,-10.182 C -8.437,-11.192 -5.464,-11.193 -5.464,-11.193 C -5.464,-11.193 -8.122,-11.21 -8.194,-11.571 C -8.265,-11.931 -5.385,-12.203 -5.385,-12.203 C -5.385,-12.203 -7.822,-12.641 -7.641,-13.291 C -7.461,-13.94 -4.706,-13.907 -4.706,-13.907 C -4.706,-13.907 -7.844,-14.411 -7.483,-15.421 C -7.123,-16.431 -4.138,-15.816 -4.138,-15.816 C -4.138,-15.816 -7.425,-17.373 -6.883,-18.42 C -6.343,-19.465 -2.891,-17.583 -2.891,-17.583 C -2.891,-17.583 -4.943,-18.814 -4.596,-19.461 C -4.207,-20.186 -1.392,-18.057 -1.392,-18.057 C -1.392,-18.057 -3.231,-20.608 -2.907,-21.149 C -2.4,-21.994 0.091,-19.241 0.091,-19.241 C 0.091,-19.241 -1.718,-21.2 -0.745,-22.065 C 0.229,-22.93 2.695,-20.329 2.695,-20.329 C 2.695,-20.329 1.038,-22.98 2.048,-23.233 C 3.058,-23.485 3.611,-20.361 3.611,-20.361 C 3.611,-20.361 3.261,-23.401 4.92,-23.185 C 6.579,-22.969 6.277,-19.477 6.277,-19.477 C 6.277,-19.477 6.879,-21.867 7.997,-21.686 C 9.115,-21.506 8.659,-18.972 8.659,-18.972 C 8.659,-18.972 9.131,-21.294 10.285,-21.149 C 11.439,-21.005 11.043,-17.93 11.043,-17.93 C 11.043,-17.93 11.578,-20.27 12.431,-19.966 C 13.561,-19.563 13.251,-17.063 13.251,-17.063 C 13.251,-17.063 13.709,-18.751 14.356,-18.482 C 14.877,-18.266 14.166,-15.958 14.166,-15.958 C 14.166,-15.958 15.555,-18.325 16.742,-17.344 C 18.166,-16.168 15.899,-14.338 15.899,-14.338 C 15.899,-14.338 17.391,-15.359 17.967,-14.638 C 18.223,-14.319 17.302,-13.461 15.707,-12.012 C 15.707,-12.012 17.456,-12.887 17.925,-12.022 C 17.931,-12.011 18.333,-11.38 16.071,-10.072 C 16.071,-10.072 17.996,-10.816 18.418,-10.018 C 18.718,-9.451 17.969,-8.752 16.393,-8.046 C 16.393,-8.046 18.538,-7.812 18.718,-7.199 C 18.898,-6.586 17.646,-6.353 17.218,-6.17 C 17.444,-6.033 18.315,-5.877 18.172,-5.27 C 18.076,-4.862 16.221,-4.937 15.975,-4.787 C 16.659,-4.498 18.032,-3.748 17.775,-3.158 C 17.368,-2.225 15.439,-2.965 14.87,-2.997 C 15.015,-2.853 17.335,-1.153 17.046,-0.66 C 16.548,0.189 14.184,-1.159 13.391,-1.7 C 13.644,-1.303 15.813,0.476 15.428,1.119 C 14.733,2.277 11.848,-1.178 11.451,-1.646 C 12.533,-0.24 12.981,0.828 12.512,1.333 C 12.043,1.838 11.05,0.487 10.293,-0.703 C 11.014,0.992 10.787,2.801 10.283,2.909 C 8.76,3.236 8.771,-0.939 8.771,-0.939 C 8.771,-0.939 8.439,2.641 8.075,2.662 C 7.775,2.68 7.817,1.848 7.646,0.069 C 7.092,1.84 6.192,2.982 5.566,2.844 C 4.651,2.645 3.86,0.436 4.022,-0.939 C 3.373,0.034 2.672,1.505 2.05,1.258 C 1.762,1.143 2.779,-1.25 2.779,-1.25 C 1.825,-0.023 0.547,0.174 0,0"
                 style="fill:#ffe100;fill-opacity:1;fill-rule:nonzero;stroke:none"
                 id="path2572" /></g><g
               id="g2574"
               transform="translate(-285.8976,201.1609)"><path
                 d="M 0,0 C 3.175,2.046 4.455,4.508 6.139,5.41 C 7.125,5.938 8.257,5.815 7.128,3.544 C 5.762,0.8 2.187,-1.835 -0.635,-4.375 C -2.025,-5.625 -9.152,-10.004 -10.231,-10.584 C -7.197,-7.338 -7.127,-6.915 -7.215,-5.969 C -8.467,-5.998 -10.156,-6.406 -9.596,-6.068 C -4.445,-2.964 -3.175,-2.046 0,0"
                 style="fill:#cfd0d2;fill-opacity:1;fill-rule:nonzero;stroke:none"
                 id="path2576" /></g><g
               id="g2578"
               transform="translate(-325.635,137.0444)"><path
                 d="M 0,0 C 1.66,-2.238 11.304,-5.227 16.029,-3.127 C 16.656,-2.849 18.823,-1.645 19.346,-1.645 C 19.868,-1.645 23.49,-3.931 26.701,-3.268 C 28.225,-2.954 28.706,-3.074 31.217,-1.557 L 32.958,-0.163 C 34.177,0.85 34.882,1.898 35.291,2.883 C 36.106,4.847 31.165,2.331 30.141,2.165 C 27.355,1.713 24.216,1.81 22.447,1.923 C 20.677,2.036 18.634,1.894 19.531,2.944 C 21.776,5.57 21.092,8.776 21.092,9.905 C 21.092,11.035 20.037,18.716 19.661,20.523 C 19.284,22.33 18.427,26.438 18.051,26.965 C 17.674,27.492 13.951,28.706 13.8,28.254 C 13.65,27.802 15.402,25.472 15.95,23.383 C 16.714,20.47 17.402,17.285 17.477,15.929 C 17.552,14.574 17.97,10.173 17.402,7.947 C 16.801,5.594 15.635,4.536 14.691,3.881 C 13.489,3.047 11.902,1.812 10.022,1.095 C 9.251,0.8 7.492,0.438 6.031,0.417 C 4.916,0.401 3.093,0.977 2.058,1.494 C 0.929,2.059 -0.369,3.203 -1.047,4.107 C -1.725,5.011 -2.252,6.366 -2.252,6.366 C -2.266,5.673 -1.541,2.522 -1.23,1.959 C -0.92,1.397 0,0 0,0"
                 style="fill:#cfd0d2;fill-opacity:1;fill-rule:nonzero;stroke:none"
                 id="path2580" /></g><g
               id="g2582"
               transform="translate(-336.3014,193.5875)"><path
                 d="M 0,0 C -8.749,8.091 -8.449,11.687 -8.808,11.966 C -10.34,13.155 -11.489,14.095 -12.253,13.783 C -12.964,13.493 -12.042,10.466 -9.572,7.009 C -7.051,3.48 -0.441,-3.33 0.215,-3.962 C 1.704,-5.399 -0.305,-0.677 -0.619,-1.279 L 0,0"
                 style="fill:#cfd0d2;fill-opacity:1;fill-rule:nonzero;stroke:none"
                 id="path2584" /></g><g
               id="g2586"
               transform="translate(-295.8542,167.6765)"><path
                 d="M 0,0 C -2.76,0.23 -5.142,-2.638 -5.274,-5.275 C -5.406,-7.911 -4.351,-11.076 -0.791,-10.944 C 2.769,-10.812 3.956,-7.78 4.087,-6.066 C 4.219,-4.352 3.164,-0.264 0,0"
                 style="fill:#000000;fill-opacity:1;fill-rule:nonzero;stroke:none"
                 id="path2588" /></g><g
               id="g2590"
               transform="translate(-318.1875,168.395)"><path
                 d="M 0,0 C -1.788,0.477 -3.692,-0.923 -4.747,-4.219 C -5.802,-7.516 -4.483,-10.417 -2.373,-10.944 C -0.264,-11.472 2.143,-8.404 2.637,-5.934 C 3.164,-3.296 1.978,-0.527 0,0"
                 style="fill:#000000;fill-opacity:1;fill-rule:nonzero;stroke:none"
                 id="path2592" /></g><g
               id="g2594"
               transform="translate(-298.9981,199.0912)"><path
                 d="M 0,0 C 0.969,0.19 0.494,-0.447 0.494,-0.447 L 3.646,-0.588 C 3.646,-0.588 2.323,-3.384 2.493,-3.551 C 2.593,-3.65 4.59,-3.538 5.133,-3.515 C 7.738,-2.542 19.029,5.743 19.216,5.734 C 19.43,5.724 9.366,-2 6.299,-3.583 C 6.554,-3.628 6.729,-3.7 6.774,-3.81 C 7.014,-4.395 5.835,-5.831 5.363,-6.562 C 5.163,-6.872 5.347,-7.054 5.605,-6.895 C 6.374,-6.421 3.469,-9.119 2.799,-8.779 C 2.034,-8.301 5.637,-5.087 5.41,-4.633 C 5.182,-4.18 0.426,-4.629 0.329,-4.422 C 0.233,-4.214 2.352,-1.505 2.352,-1.505 L -3.175,-1.129 C -3.175,-1.129 -1.444,-0.284 0,0"
                 style="fill:#000000;fill-opacity:1;fill-rule:nonzero;stroke:none"
                 id="path2596" /></g><g
               id="g2598"
               transform="translate(-342.566,170.0992)"><path
                 d="M 0,0 C 0.123,-0.757 0.625,-0.659 0.855,-1.118 C 1.085,-1.576 0.992,-2.203 0.586,-2.259 C -0.047,-2.346 2.08,-4.065 2.08,-4.065 L 3.09,-4.195 C 3.09,-4.195 3.049,-3.131 3.008,-2.292 C 2.967,-1.453 2.395,-0.634 1.781,0.021 C 1.167,0.675 1.365,2.084 1.064,2.517 C 0.763,2.951 -0.123,0.757 0,0"
                 style="fill:#000000;fill-opacity:1;fill-rule:nonzero;stroke:none"
                 id="path2600" /></g><g
               id="g2602"
               transform="translate(-324.8391,167.4831)"><path
                 d="M 0,0 C -0.843,-1.467 -1.28,-3.015 -1.28,-4.496 C -1.28,-7.08 -0.017,-9.614 0.421,-10.336 C 0.953,-11.213 -1.921,-16.664 -3.951,-20.444 C -4.272,-21.043 -4.947,-22.77 -4.735,-24.464 C -5.462,-24.503 -7.555,-21.427 -8.051,-20.512 C -8.542,-21.683 -6.303,-25.94 -3.12,-29.084 C -2.192,-30.641 0.709,-31.659 0.709,-31.659 C -1.008,-30.669 -3.978,-24.331 -2.526,-21.822 C 0.492,-16.609 2.914,-11.333 2.227,-10.07 C 1.909,-9.483 0.172,-7.331 0.031,-4.746 C -0.05,-3.251 0.369,-1.371 0.961,-0.123 C 1.967,1.998 5.151,3.59 5.151,3.59 C 2.913,3.179 0.703,1.224 0,0"
                 style="fill:#000000;fill-opacity:1;fill-rule:nonzero;stroke:none"
                 id="path2604" /></g><g
               id="g2606"
               transform="translate(-295.0224,151.3633)"><path
                 d="M 0,0 C -0.383,-1.124 0.14,-3.54 0.14,-3.54 C -0.028,-3.036 0.365,-1.252 1.051,0.11 C 2.12,2.234 3.893,4.263 5.307,5.998 L 4.221,7.638 C 2.577,5.567 0.498,2.376 0,0"
                 style="fill:#000000;fill-opacity:1;fill-rule:nonzero;stroke:none"
                 id="path2608" /></g><g
               id="g2610"
               transform="translate(-311.1095,168.8641)"><path
                 d="M 0,0 C 3.441,-0.688 8.334,-0.701 11.029,0.169 C 15.341,1.559 19.514,-1.396 20.678,-4.024 L 21.947,-2.569 C 21.252,-0.333 16.388,3.471 10.884,1.742 C 7.339,0.628 0.381,0.239 -2.128,1.394 C -3.378,1.969 -3.582,2.061 -4.316,2.415 C -4.316,2.415 -2.834,0.567 0,0"
                 style="fill:#000000;fill-opacity:1;fill-rule:nonzero;stroke:none"
                 id="path2612" /></g><g
               id="g2614"
               transform="translate(-308.8129,161.5722)"><path
                 d="M 0,0 C 1.485,-4.06 4.484,-14.079 4.008,-17.894 C 3.826,-19.345 3.52,-20.534 2.585,-21.732 C 2.585,-21.732 4.234,-20.507 4.793,-18.62 C 5.76,-15.357 4.21,-5.31 2.39,-0.145 C 1.978,1.026 1.558,1.949 1.179,2.516 C 1.179,2.516 -0.373,1.019 0,0"
                 style="fill:#000000;fill-opacity:1;fill-rule:nonzero;stroke:none"
                 id="path2616" /></g><g
               id="g2618"
               transform="translate(-305.5881,137.6413)"><path
                 d="M 0,0 C -0.85,-0.104 -3.374,-1.244 -3.374,-1.244 C -6.052,-2.338 -12.967,-4.736 -16.725,-3.452 L -12.341,-5.43 C -9,-5.816 -5.514,-3.865 -2.751,-2.736 C -2.751,-2.736 -0.275,-1.505 0.242,-1.45 C 0.759,-1.395 2.444,-2.043 3.262,-2.243 C 5.783,-2.862 8.874,-3.194 11.633,-2.766 C 12.91,-2.568 16.825,-1.207 17.461,1.878 C 18.031,3.543 16.14,3.366 16.14,3.366 C 15.925,1.895 15.401,1.075 14.448,0.353 C 13.677,-0.23 12.645,-0.809 11.622,-1.06 C 8.553,-1.814 4.944,-1.131 3.737,-0.864 C 2.848,-0.668 0.911,0.111 0,0"
                 style="fill:#000000;fill-opacity:1;fill-rule:nonzero;stroke:none"
                 id="path2620" /></g><g
               id="g2622"
               transform="translate(-333.3492,177.5585)"><path
                 d="M 0,0 C -0.342,1.151 -1.336,2.48 -2.054,3.014 C -3.527,4.108 -5.499,4.226 -6.532,4.239 C -6.754,4.241 -7.072,4.185 -7.401,4.177 C -7.795,4.166 -8.614,0.817 -8.614,0.817 C -8.397,0.332 -8.186,-0.607 -8.186,-0.607 C -8.186,-0.607 -10.008,-1.068 -11.435,-0.106 C -10.597,0.018 -10.008,0.36 -9.852,0.67 C -10.752,0.639 -11.996,1.513 -12.087,1.725 C -11.497,1.57 -10.523,1.603 -10.07,2.098 C -10.414,2.059 -11.435,2.346 -12.366,3.028 C -10.845,2.966 -10.178,3.111 -9.604,3.494 C -10.983,3.392 -12.583,4.766 -12.583,4.766 C -12.583,4.766 -11.087,4.513 -8.704,5.014 C -7.838,5.197 -6.923,5.613 -5.943,5.69 C -4.801,5.779 -3.401,5.754 -1.681,4.476 C -0.132,3.326 0.85,0.148 0.994,-0.47 C 1.139,-1.088 1.286,-2.24 0.87,-2.834 C 0.459,-3.422 -0.071,-3.493 -0.779,-3.706 C -1.382,-3.887 -2.801,-4.141 -4.17,-4.048 C -5.539,-3.954 -4.746,-3.246 -4.092,-3.246 C -3.439,-3.246 -2.017,-3.096 -1.482,-2.999 C -0.706,-2.858 -0.112,-2.8 0.106,-2.364 C 0.324,-1.928 0.342,-1.151 0,0"
                 style="fill:#000000;fill-opacity:1;fill-rule:nonzero;stroke:none"
                 id="path2624" /></g><g
               id="g2626"
               transform="translate(-341.489,175.9842)"><path
                 d="M 0,0 C 1.223,-1.747 2.612,-2.559 4.247,-2.482 C 5.48,-2.423 7.053,-0.461 7.501,0.675 C 8.004,1.948 7.889,3.816 7.579,4.496 L 7.05,4.62 C 7.227,4.232 7.403,2.095 6.807,1.022 C 6.063,-0.317 4.947,-1.16 4.08,-1.235 C 3.25,-1.306 1.663,-1.217 0.286,0.749 C -1.046,2.652 1.09,5.535 1.526,6.327 L 0.371,6.372 C -0.127,5.465 -1.628,2.326 0,0"
                 style="fill:#000000;fill-opacity:1;fill-rule:nonzero;stroke:none"
                 id="path2628" /></g><g
               id="g2630"
               transform="translate(-334.9348,178.8582)"><path
                 d="M 0,0 C -0.068,-1.738 -1.304,-3.1 -2.759,-3.043 C -4.215,-2.986 -5.339,-1.53 -5.271,0.207 C -5.203,1.945 -3.967,3.308 -2.511,3.251 C -1.056,3.193 0.068,1.738 0,0"
                 style="fill:#000000;fill-opacity:1;fill-rule:nonzero;stroke:none"
                 id="path2632" /></g><g
               id="g2634"
               transform="translate(-291.6632,178.725)"><path
                 d="M 0,0 C -0.61,-1.761 -2.205,-2.808 -3.564,-2.338 C -4.922,-1.869 -5.53,-0.059 -4.92,1.702 C -4.311,3.463 -2.715,4.51 -1.357,4.04 C 0.001,3.57 0.609,1.761 0,0"
                 style="fill:#000000;fill-opacity:1;fill-rule:nonzero;stroke:none"
                 id="path2636" /></g><g
               id="g2638"
               transform="translate(-330.1918,198.6561)"><path
                 d="M 0,0 C -0.336,0.638 -0.684,-0.04 -1.358,0.564 C -1.335,-0.132 -0.911,-0.623 -0.988,-0.67 C -1.065,-0.717 -5.568,-0.941 -7.845,-1.122 C -8.032,-1.137 -4.767,-4.723 -4.909,-4.901 C -4.98,-4.991 -5.72,-4.997 -6.426,-5.081 C -10.037,-2.575 -16.587,5.418 -16.705,5.398 C -16.841,5.374 -11.06,-2.187 -7.175,-5.217 C -7.534,-5.319 -7.777,-5.475 -7.733,-5.721 C -7.615,-6.389 -6.026,-7.251 -6.379,-7.807 C -6.731,-8.363 -7.278,-7.635 -7.278,-7.635 C -6.972,-7.787 -8.69,-7.971 -8.495,-7.998 C -7.813,-8.094 -7.201,-10.026 -6.175,-9.914 C -4.238,-9.703 -4.823,-7.542 -5.866,-6.268 C -6.276,-5.767 -3.346,-6.217 -3.125,-5.855 C -2.905,-5.494 -5.551,-2.67 -5.504,-2.399 C -5.457,-2.129 -1.558,-2.345 -0.194,-2.54 C 0.547,-2.646 2.433,-3.74 3.264,-5.116 C 4.369,-6.947 5.098,-8.432 5.275,-9.42 C 5.451,-10.408 7.091,-12.375 7.427,-13.054 C 7.762,-13.732 8.057,-15.086 7.549,-15.934 C 7.246,-16.438 5.312,-20.098 5.312,-20.098 C 4.677,-21.843 4.226,-23.579 4.922,-24.872 C 5.423,-25.804 6.615,-30.2 6.615,-30.2 L 7.947,-28.982 C 7.947,-28.982 6.763,-25.233 6.227,-24.237 C 5.721,-23.297 6.083,-22.052 6.645,-20.51 C 6.645,-20.51 8.317,-17.294 8.772,-16.535 C 9.553,-15.233 9.332,-13.336 8.767,-12.313 C 8.203,-11.29 6.827,-9.773 6.58,-8.714 C 6.333,-7.656 5.842,-5.817 4.677,-4.324 C 2.734,-1.835 0.688,-1.305 0,0"
                 style="fill:#000000;fill-opacity:1;fill-rule:nonzero;stroke:none"
                 id="path2640" /></g><g
               id="g2642"
               transform="translate(-299.8329,197.8094)"><path
                 d="M 0,0 C -0.153,0.306 -0.317,1.297 -0.778,1.413 C -1.282,1.539 -2.419,1.378 -2.419,1.378 C -3.407,-0.154 -3.742,-1.868 -4.163,-2.928 C -4.585,-3.989 -6.757,-8.472 -7.321,-9.297 C -7.885,-10.12 -8.151,-11.12 -7.394,-12.919 C -7.073,-13.681 -6.997,-14.409 -6.917,-15.18 C -6.809,-16.217 -6.698,-17.289 -5.971,-18.439 C -5.971,-18.439 -3.923,-21.331 -4.304,-21.821 C -4.514,-22.09 -6.074,-21.874 -5.416,-24.096 C -5.024,-25.418 -4.84,-27.162 -4.393,-28.207 L -3.08,-27.866 C -3.5,-26.885 -4.177,-24.954 -4.46,-23.676 C -4.714,-22.533 -3.254,-22.843 -3.07,-22.227 C -2.771,-21.231 -4.834,-17.869 -4.834,-17.869 C -5.449,-16.896 -5.579,-16.113 -5.68,-15.135 C -5.764,-14.333 -5.785,-13.461 -6.157,-12.577 C -6.757,-11.153 -7.098,-10.919 -6.328,-9.861 C -5.557,-8.803 -3.229,-3.987 -2.879,-3.125 C -2.551,-2.314 -1.117,0.035 0,0"
                 style="fill:#000000;fill-opacity:1;fill-rule:nonzero;stroke:none"
                 id="path2644" /></g><g
               id="g2646"
               transform="translate(-331.5031,182.2036)"><path
                 d="M 0,0 C -0.457,0.878 -1.44,1.973 -3.439,2.414 C -4.665,2.684 -7.504,2.177 -7.504,2.177 C -6.468,1.97 -4.006,1.612 -2.117,0.347 C -0.884,-0.478 0.213,-2.64 0.329,-3.34 C 0.329,-3.34 0.853,-1.637 0,0"
                 style="fill:#000000;fill-opacity:1;fill-rule:nonzero;stroke:none"
                 id="path2648" /></g><g
               id="g2650"
               transform="translate(-297.5933,178.6387)"><path
                 d="M 0,0 C 0.153,1.427 0.706,3.38 3.856,3.849 C 5.057,4.028 6.83,3.731 8.134,2.708 C 8.458,2.453 7.625,-0.769 6.968,-0.622 C 7.365,-1.217 8.109,-1.447 9.497,-0.802 C 9.116,-0.456 7.974,-0.578 7.941,0.102 C 8.217,-0.157 9.499,-0.168 10.487,0.758 C 9.454,0.749 9.108,0.675 8.785,1.192 C 10.219,1.128 10.466,1.272 11.536,2.116 C 10.24,1.951 9.767,1.924 9.478,2.569 C 10.866,2.196 11.908,3.12 12.038,3.219 C 11.769,3.36 11.431,2.806 8.838,3.859 C 7.709,4.318 5.345,5.341 3.721,4.899 C -0.456,3.761 -0.549,1.848 -0.807,0.504 C -1.06,-0.807 -0.649,-2.472 -0.283,-2.98 C 0.084,-3.487 0.942,-4.179 1.958,-4.467 C 3.783,-4.983 6.007,-3.091 6.014,-3.086 C 7.674,-1.609 8.399,1.945 8.224,3.054 L 6.718,3.481 C 7.65,3.065 7.111,-1.18 5.532,-2.525 C 4.71,-3.225 3.363,-3.643 2.412,-3.35 C 1.832,-3.172 0.829,-2.692 0.504,-2.144 C 0.101,-1.463 -0.076,-0.706 0,0"
                 style="fill:#000000;fill-opacity:1;fill-rule:nonzero;stroke:none"
                 id="path2652" /></g><g
               id="g2654"
               transform="translate(-297.5231,183.9222)"><path
                 d="M 0,0 C -0.544,-0.572 -1.964,-2.814 -1.964,-2.814 C -1.964,-2.814 -0.588,-1.468 0.091,-0.98 C 1.732,0.201 3.096,0.699 4.105,0.623 C 5.283,0.535 7.258,-0.283 7.258,-0.283 C 7.258,-0.283 6.065,1.861 4.354,1.885 C 2.643,1.909 1.219,1.283 0,0"
                 style="fill:#000000;fill-opacity:1;fill-rule:nonzero;stroke:none"
                 id="path2656" /></g><g
               id="g2658"
               transform="translate(-293.6087,183.5939)"><path
                 d="M 0,0 C -5.021,-1.173 -5.852,-4.56 -6.408,-6.62 C -6.515,-7.018 -6.521,-7.281 -6.434,-7.48 C -6.366,-7.638 -6.327,-7.74 -5.962,-7.985 C -5.228,-8.478 -2.257,-9.377 -1.836,-9.45 C -1.415,-9.522 -2.989,-8.204 -2.989,-8.204 C -2.989,-8.204 -5.844,-7.83 -5.874,-7.075 C -5.902,-6.346 -5.297,-5.435 -5.044,-5.031 C -4.234,-3.736 -3.684,-2.68 -3.226,-2.366 L 0,0"
                 style="fill:#000000;fill-opacity:1;fill-rule:nonzero;stroke:none"
                 id="path2660" /></g><g
               id="g2662"
               transform="translate(-357.3107,182.6304)"><path
                 d="M 0,0 C -0.907,0 -1.961,-0.255 -2.913,-0.689 C -3.812,-1.098 -6.008,-1.227 -8.035,-1.258 C -9.707,-1.283 -11.694,-2.649 -13.891,-2.972 C -14.631,-3.081 -19.702,-3.933 -19.702,-3.933 C -18.718,-4.425 -15.072,-4.518 -14.085,-4.458 C -11.953,-4.329 -9.434,-3.059 -7.757,-3.014 C -6.202,-2.972 -3.23,-2.778 -2.243,-2.484 C -1.786,-2.348 -0.84,-1.809 0.129,-1.809 C 1.098,-1.809 2.52,-3.618 3.554,-3.553 C 4.587,-3.489 5.377,-2.61 5.944,-2.455 C 6.655,-2.261 8.086,-2.403 8.584,-2.51 C 10.177,-2.851 11.259,-1.827 11.259,-1.827 C 11.259,-1.827 9.722,-1.542 9.096,-1.372 C 8.599,-1.236 6.396,-0.711 5.427,-0.905 C 4.458,-1.098 4.07,-1.615 3.295,-1.68 C 2.664,-1.661 1.744,0 0,0"
                 style="fill:#000000;fill-opacity:1;fill-rule:nonzero;stroke:none"
                 id="path2664" /></g><g
               id="g2666"
               transform="translate(-283.4187,183.7469)"><path
                 d="M 0,0 C -0.683,-0.096 -2.067,-0.568 -2.067,-0.568 C -2.067,-0.568 0.029,-0.819 1.384,-1.071 C 3.109,-1.391 6.429,-2.82 7.757,-3.054 C 9.637,-3.386 12.757,-3.013 13.75,-2.869 C 14.911,-2.702 18.53,-1.591 19.604,-1.621 C 21.042,-1.662 23.247,-2.471 24.171,-2.844 C 25.094,-3.218 28.823,-4.561 28.949,-4.477 C 28.949,-4.477 25.747,-2.13 24.603,-1.447 C 23.629,-0.866 21.19,0.185 19.641,0.259 C 18.253,0.324 14.841,-0.795 13.594,-0.982 C 12.346,-1.169 9.169,-1.317 7.495,-1.137 C 6.365,-1.016 2.025,0.284 0,0"
                 style="fill:#000000;fill-opacity:1;fill-rule:nonzero;stroke:none"
                 id="path2668" /></g><g
               id="g2670"
               transform="translate(-291.9449,168.1859)"><path
                 d="M 0,0 C 1.098,0.16 1.894,2.969 2.216,3.709 C 2.538,4.448 1.281,5.468 1.597,6.18 C 1.912,6.891 2.205,8.858 2.49,8.717 C 2.95,8.49 3.527,7.334 2.87,6.19 C 2.495,5.536 3.89,4.165 3.526,3.375 C 3.162,2.584 3.065,1.652 3.016,1.181 C 2.967,0.71 2.989,-0.013 3.726,0.104 C 4.86,0.285 3.207,-1.648 3.207,-1.648 L 1.669,-0.869 C 1.669,-0.869 -1.452,-0.212 0,0"
                 style="fill:#000000;fill-opacity:1;fill-rule:nonzero;stroke:none"
                 id="path2672" /></g><g
               id="g2674"
               transform="translate(-335.1214,179.9641)"><path
                 d="M 0,0 C 0,-0.861 -0.678,-1.558 -1.514,-1.558 C -2.35,-1.558 -3.028,-0.861 -3.028,0 C -3.028,0.86 -2.35,1.558 -1.514,1.558 C -0.678,1.558 0,0.86 0,0"
                 style="fill:#ffffff;fill-opacity:1;fill-rule:nonzero;stroke:none"
                 id="path2676" /></g><g
               id="g2678"
               transform="translate(-294.0459,180.2669)"><path
                 d="M 0,0 C 0,-0.747 -0.622,-1.352 -1.391,-1.352 C -2.159,-1.352 -2.781,-0.747 -2.781,0 C -2.781,0.747 -2.159,1.352 -1.391,1.352 C -0.622,1.352 0,0.747 0,0"
                 style="fill:#ffffff;fill-opacity:1;fill-rule:nonzero;stroke:none"
                 id="path2680" /></g><g
               id="g2682"
               transform="translate(-283.9851,130.5071)"><path
                 d="M 0,0 C 0.042,-0.432 0.403,-1.553 1.068,-1.28 C 1.923,-0.928 0.97,1.794 0.445,1.644 C -0.081,1.494 -0.062,0.642 0,0"
                 style="fill:#ffffff;fill-opacity:1;fill-rule:nonzero;stroke:none"
                 id="path2684" /></g><g
               id="g2686"
               transform="translate(-285.9851,130.7739)"><path
                 d="M 0,0 C 0.269,-0.499 0.635,-1.476 0.934,-1.329 C 1.233,-1.182 0.264,0.41 0.052,0.347 C -0.159,0.285 0,0 0,0"
                 style="fill:#ffffff;fill-opacity:1;fill-rule:nonzero;stroke:none"
                 id="path2688" /></g><g
               id="g2690"
               transform="translate(-287.4206,130.0313)"><path
                 d="M 0,0 C -0.488,-0.347 0.315,-0.905 0.547,-1.08 C 0.765,-1.244 1.582,-1.919 1.604,-1.356 C 1.613,-1.141 1.142,-0.646 0.947,-0.457 C 0.752,-0.268 0.267,0.19 0,0"
                 style="fill:#ffffff;fill-opacity:1;fill-rule:nonzero;stroke:none"
                 id="path2692" /></g><g
               id="g2694"
               transform="translate(-287.8513,128.4629)"><path
                 d="M 0,0 C -0.262,0.194 -1.612,0.571 -1.505,0.176 C -1.399,-0.22 0.404,-0.855 0.525,-0.57 C 0.647,-0.285 0,0 0,0"
                 style="fill:#ffffff;fill-opacity:1;fill-rule:nonzero;stroke:none"
                 id="path2696" /></g><g
               id="g2698"
               transform="translate(-292.651,124.2854)"><path
                 d="M 0,0 C -0.123,0.012 -0.661,0.143 -0.758,0.038 C -1.001,-0.225 -0.468,-0.439 -0.309,-0.49 C 0.198,-0.651 0.876,-0.89 1.422,-0.844 C 2.434,-0.759 1.548,-0.456 0.978,-0.266 C 0.978,-0.266 0.535,-0.052 0,0"
                 style="fill:#ffffff;fill-opacity:1;fill-rule:nonzero;stroke:none"
                 id="path2700" /></g><g
               id="g2702"
               transform="translate(-294.386,122.7325)"><path
                 d="M 0,0 C -0.405,0.018 -1.006,-0.134 -0.499,-0.535 C -0.096,-0.854 0.815,-0.868 1.302,-0.935 C 1.747,-0.997 2.745,-1.071 2.762,-0.801 C 2.779,-0.531 2.083,-0.435 1.469,-0.269 C 1.469,-0.269 0.667,-0.03 0,0"
                 style="fill:#ffffff;fill-opacity:1;fill-rule:nonzero;stroke:none"
                 id="path2704" /></g><g
               id="g2706"
               transform="translate(-295.6205,120.2048)"><path
                 d="M 0,0 C 0.298,-0.402 1.41,-0.357 2.048,-0.274 C 2.188,-0.256 2.813,-0.248 2.839,-0.053 C 2.875,0.216 2.116,0.324 1.958,0.359 C 1.958,0.359 -0.298,0.402 0,0"
                 style="fill:#ffffff;fill-opacity:1;fill-rule:nonzero;stroke:none"
                 id="path2708" /></g><g
               id="g2710"
               transform="translate(-287.2261,124.6857)"><path
                 d="M 0,0 C -0.305,0.135 -1.625,0.639 -1.901,0.413 C -2.32,0.069 -1.354,-0.342 -1.114,-0.435 C -0.891,-0.521 0.104,-0.899 0.25,-0.585 C 0.379,-0.31 -0.207,0.135 -0.422,0.165"
                 style="fill:#ffffff;fill-opacity:1;fill-rule:nonzero;stroke:none"
                 id="path2712" /></g><g
               id="g2714"
               transform="translate(-287.4516,126.5521)"><path
                 d="M 0,0 L -0.001,0 L -0.002,0 C -0.768,0.106 -0.395,-0.547 0.01,-0.765 C 0.398,-0.975 1.248,-1.471 1.46,-1.149 C 1.672,-0.826 0,0 0,0"
                 style="fill:#ffffff;fill-opacity:1;fill-rule:nonzero;stroke:none"
                 id="path2716" /></g><g
               id="g2718"
               transform="translate(-285.8073,127.3074)"><path
                 d="M 0,0 C -0.187,-0.147 0.453,-0.927 0.755,-1.145 C 0.999,-1.321 1.411,-1.627 1.336,-1.145 C 1.3,-0.909 0.749,-0.355 0.577,-0.178 C 0.388,0.017 0.187,0.147 0,0"
                 style="fill:#ffffff;fill-opacity:1;fill-rule:nonzero;stroke:none"
                 id="path2720" /></g><g
               id="g2722"
               transform="translate(-282.3955,127.3856)"><path
                 d="M 0,0 C -0.165,-0.432 -0.046,-1.39 0.41,-1.327 C 0.867,-1.264 0.379,0.295 0.2,0.271 C 0.021,0.246 0,0 0,0"
                 style="fill:#ffffff;fill-opacity:1;fill-rule:nonzero;stroke:none"
                 id="path2724" /></g><g
               id="g2726"
               transform="translate(-290.5139,122.3428)"><path
                 d="M 0,0 C 0.41,-0.32 1.522,-0.249 1.651,-0.004 C 1.781,0.241 1.074,0.401 0.78,0.465 C 0.78,0.465 -0.655,0.512 0,0"
                 style="fill:#ffffff;fill-opacity:1;fill-rule:nonzero;stroke:none"
                 id="path2728" /></g><g
               id="g2730"
               transform="translate(-290.3257,120.5088)"><path
                 d="M 0,0 C 0.514,-0.382 1.877,-0.066 1.826,0.242 C 1.776,0.551 1.209,0.535 1.032,0.5 C 0.855,0.465 -0.849,0.633 0,0"
                 style="fill:#ffffff;fill-opacity:1;fill-rule:nonzero;stroke:none"
                 id="path2732" /></g><g
               id="g2734"
               transform="translate(-290.2049,127.1296)"><path
                 d="M 0,0 C 0.215,-0.473 1.295,-0.707 1.377,-0.452 C 1.46,-0.197 1.054,-0.011 0.917,0.024 C 0.779,0.059 -0.355,0.783 0,0"
                 style="fill:#ffffff;fill-opacity:1;fill-rule:nonzero;stroke:none"
                 id="path2736" /></g><g
               id="g2738"
               transform="translate(-292.4382,118.4106)"><path
                 d="M 0,0 C -0.416,-0.566 0.909,-0.314 1.157,-0.302 C 1.443,-0.289 2.698,-0.32 2.398,0.09 C 2.129,0.459 1.202,0.107 0.843,0.231 C 0.843,0.231 0.255,0.347 0,0"
                 style="fill:#ffffff;fill-opacity:1;fill-rule:nonzero;stroke:none"
                 id="path2740" /></g><g
               id="g2742"
               transform="translate(-294.1859,112.9529)"><path
                 d="M 0,0 C -0.08,-0.612 0.858,0.207 1.049,0.334 C 1.27,0.482 2.279,1.061 1.861,1.216 C 1.485,1.355 0.905,0.655 0.566,0.572 C 0.566,0.572 0.049,0.375 0,0"
                 style="fill:#ffffff;fill-opacity:1;fill-rule:nonzero;stroke:none"
                 id="path2744" /></g><g
               id="g2746"
               transform="translate(-285.2925,124.187)"><path
                 d="M 0,0 C -0.324,-0.307 0.791,-0.848 0.96,-1.017 C 1.133,-1.19 1.954,-1.826 2.11,-1.291 C 2.186,-1.034 1.585,-0.524 1.41,-0.405 C 1.41,-0.405 0.257,0.244 0,0"
                 style="fill:#ffffff;fill-opacity:1;fill-rule:nonzero;stroke:none"
                 id="path2748" /></g><g
               id="g2750"
               transform="translate(-283.5364,125.2341)"><path
                 d="M 0,0 C 0.107,-0.19 0.481,-1.584 0.823,-0.826 C 1.061,-0.299 0.01,0.52 -0.165,0.35 C -0.341,0.18 -0.108,0.19 0,0"
                 style="fill:#ffffff;fill-opacity:1;fill-rule:nonzero;stroke:none"
                 id="path2752" /></g><g
               id="g2754"
               transform="translate(-285.3718,121.7317)"><path
                 d="M 0,0 C -0.185,0.019 -0.85,0.137 -1.282,0.174 C -1.665,0.208 -1.865,0.276 -1.791,0.015 C -1.673,-0.401 -0.683,-0.482 -0.241,-0.496 C 0.046,-0.504 0.855,-0.554 0.561,-0.242 C 0.406,-0.078 0.185,-0.019 0,0"
                 style="fill:#ffffff;fill-opacity:1;fill-rule:nonzero;stroke:none"
                 id="path2756" /></g><g
               id="g2758"
               transform="translate(-288.3,119.4874)"><path
                 d="M 0,0 C 0.003,-0.319 0.997,-0.268 1.193,-0.226 C 2.254,0.007 1.006,0.4 0.538,0.354 C 0.538,0.354 -0.003,0.257 0,0"
                 style="fill:#ffffff;fill-opacity:1;fill-rule:nonzero;stroke:none"
                 id="path2760" /></g><g
               id="g2762"
               transform="translate(-289.4465,116.118)"><path
                 d="M 0,0 C 0.427,-0.044 2.19,-0.202 2.254,0.472 C 1.945,0.6 1.606,0.477 1.284,0.48 C 1.284,0.48 0.282,0.373 0,0"
                 style="fill:#ffffff;fill-opacity:1;fill-rule:nonzero;stroke:none"
                 id="path2764" /></g><g
               id="g2766"
               transform="translate(-283.3631,120.064)"><path
                 d="M 0,0 C -0.292,0.119 -0.813,-0.073 -0.795,-0.269 C -0.778,-0.465 0.218,-0.45 0.261,-0.27 C 0.304,-0.09 0,0 0,0"
                 style="fill:#ffffff;fill-opacity:1;fill-rule:nonzero;stroke:none"
                 id="path2768" /></g><g
               id="g2770"
               transform="translate(-283.0811,121.1198)"><path
                 d="M 0,0 C 0.161,-0.089 1.156,-0.924 1.089,-0.168 C 1.035,0.45 -0.562,0.696 -0.548,0.455 C -0.535,0.214 -0.161,0.09 0,0"
                 style="fill:#ffffff;fill-opacity:1;fill-rule:nonzero;stroke:none"
                 id="path2772" /></g><g
               id="g2774"
               transform="translate(-290.9926,125.5962)"><path
                 d="M 0,0 C 0.126,-0.07 0.908,-0.726 0.855,-0.132 C 0.813,0.353 -0.441,0.546 -0.431,0.357 C -0.42,0.168 -0.126,0.07 0,0"
                 style="fill:#ffffff;fill-opacity:1;fill-rule:nonzero;stroke:none"
                 id="path2776" /></g><g
               id="g2778"
               transform="translate(-279.0869,130.8794)"><path
                 d="M 0,0 C 0.366,-0.108 0.483,1.4 0.366,1.487 C 0.162,1.637 0.015,1.092 -0.031,1.027 C -0.031,1.027 -0.366,0.109 0,0"
                 style="fill:#ffffff;fill-opacity:1;fill-rule:nonzero;stroke:none"
                 id="path2780" /></g><g
               id="g2782"
               transform="translate(-279.9454,127.8501)"><path
                 d="M 0,0 C 0.307,0.048 0.333,1.741 0.02,1.657 C -0.294,1.573 -0.307,-0.049 0,0"
                 style="fill:#ffffff;fill-opacity:1;fill-rule:nonzero;stroke:none"
                 id="path2784" /></g><g
               id="g2786"
               transform="translate(-280.7857,124.4144)"><path
                 d="M 0,0 C 0.521,0.037 0.396,1.868 0.089,1.782 C -0.217,1.697 -0.521,-0.037 0,0"
                 style="fill:#ffffff;fill-opacity:1;fill-rule:nonzero;stroke:none"
                 id="path2788" /></g><g
               id="g2790"
               transform="translate(-283.5609,110.0713)"><path
                 d="M 0,0 C 0.053,0.305 0.048,1.139 -0.375,1.06 C -0.919,0.96 -0.864,-1.077 -0.542,-1.061 C -0.219,-1.045 -0.079,-0.453 0,0"
                 style="fill:#c36e20;fill-opacity:1;fill-rule:nonzero;stroke:none"
                 id="path2792" /></g><g
               id="g2794"
               transform="translate(-280.8305,109.9341)"><path
                 d="M 0,0 C -0.165,0.538 -0.345,1.564 -0.638,1.471 C -0.93,1.378 -0.3,-0.357 -0.1,-0.333 C 0.1,-0.309 0,0 0,0"
                 style="fill:#c36e20;fill-opacity:1;fill-rule:nonzero;stroke:none"
                 id="path2796" /></g><g
               id="g2798"
               transform="translate(-279.2192,111.5192)"><path
                 d="M 0,0 C 0.078,-0.305 0.843,-1.366 0.995,-0.985 C 1.146,-0.604 0.201,0.919 -0.052,0.756 C -0.306,0.593 0,0 0,0"
                 style="fill:#c36e20;fill-opacity:1;fill-rule:nonzero;stroke:none"
                 id="path2800" /></g><g
               id="g2802"
               transform="translate(-273.2126,114.2956)"><path
                 d="M 0,0 C 0.091,-0.069 0.452,-0.437 0.579,-0.391 C 0.897,-0.277 0.581,0.163 0.48,0.281 C 0.158,0.661 -0.261,1.19 -0.713,1.408 C -1.552,1.811 -0.999,1.129 -0.642,0.694 C -0.642,0.694 -0.396,0.297 0,0"
                 style="fill:#c36e20;fill-opacity:1;fill-rule:nonzero;stroke:none"
                 id="path2804" /></g><g
               id="g2806"
               transform="translate(-272.0317,116.5608)"><path
                 d="M 0,0 C 0.189,-0.087 0.504,-0.121 0.338,0.185 C 0.206,0.429 -0.225,0.609 -0.444,0.736 C -0.644,0.853 -1.106,1.081 -1.164,0.944 C -1.223,0.806 -0.91,0.623 -0.648,0.419 C -0.648,0.419 -0.312,0.143 0,0"
                 style="fill:#c36e20;fill-opacity:1;fill-rule:nonzero;stroke:none"
                 id="path2808" /></g><g
               id="g2810"
               transform="translate(-271.1203,118.8391)"><path
                 d="M 0,0 C -0.084,0.378 -0.788,0.598 -1.207,0.681 C -1.298,0.699 -1.69,0.837 -1.755,0.693 C -1.846,0.495 -1.4,0.237 -1.311,0.174 C -1.311,0.174 0.084,-0.378 0,0"
                 style="fill:#c36e20;fill-opacity:1;fill-rule:nonzero;stroke:none"
                 id="path2812" /></g><g
               id="g2814"
               transform="translate(-278.3316,115.9958)"><path
                 d="M 0,0 C 0.153,-0.276 0.857,-1.402 1.188,-1.363 C 1.691,-1.304 1.199,-0.444 1.071,-0.238 C 0.953,-0.047 0.421,0.8 0.138,0.619 C -0.111,0.46 0.08,-0.223 0.224,-0.364"
                 style="fill:#c36e20;fill-opacity:1;fill-rule:nonzero;stroke:none"
                 id="path2816" /></g><g
               id="g2818"
               transform="translate(-279.2311,113.6329)"><path
                 d="M 0,0 L 0.001,0 C 0.001,0 0.002,0 0.002,-0.001 C 0.637,-0.329 0.501,0.404 0.213,0.733 C -0.064,1.048 -0.658,1.774 -0.936,1.53 C -1.214,1.286 0,0 0,0"
                 style="fill:#c36e20;fill-opacity:1;fill-rule:nonzero;stroke:none"
                 id="path2820" /></g><g
               id="g2822"
               transform="translate(-280.4828,112.2643)"><path
                 d="M 0,0 C 0.207,0.079 -0.095,1.023 -0.286,1.326 C -0.44,1.57 -0.697,1.993 -0.786,1.514 C -0.829,1.279 -0.531,0.577 -0.439,0.354 C -0.339,0.11 -0.207,-0.078 0,0"
                 style="fill:#c36e20;fill-opacity:1;fill-rule:nonzero;stroke:none"
                 id="path2824" /></g><g
               id="g2826"
               transform="translate(-282.949,112.3394)"><path
                 d="M 0,0 C 0.228,0.39 0.297,1.352 -0.124,1.382 C -0.545,1.412 -0.394,-0.213 -0.229,-0.225 C -0.065,-0.237 0,0 0,0"
                 style="fill:#c36e20;fill-opacity:1;fill-rule:nonzero;stroke:none"
                 id="path2828" /></g><g
               id="g2830"
               transform="translate(-274.1234,116.9449)"><path
                 d="M 0,0 C -0.228,0.447 -1.19,0.789 -1.389,0.609 C -1.588,0.43 -1.051,0.022 -0.827,-0.144 C -0.827,-0.144 0.364,-0.715 0,0"
                 style="fill:#c36e20;fill-opacity:1;fill-rule:nonzero;stroke:none"
                 id="path2832" /></g><g
               id="g2834"
               transform="translate(-273.9882,120.0372)"><path
                 d="M 0,0 C -0.417,0.454 -1.693,0.343 -1.686,0.031 C -1.679,-0.281 -1.163,-0.35 -0.998,-0.342 C -0.833,-0.333 0.69,-0.751 0,0"
                 style="fill:#c36e20;fill-opacity:1;fill-rule:nonzero;stroke:none"
                 id="path2836" /></g><g
               id="g2838"
               transform="translate(-276.186,112.0876)"><path
                 d="M 0,0 C 0.139,0.499 -0.475,1.32 -0.69,1.168 C -0.905,1.018 -0.734,0.632 -0.659,0.524 C -0.584,0.415 -0.232,-0.825 0,0"
                 style="fill:#c36e20;fill-opacity:1;fill-rule:nonzero;stroke:none"
                 id="path2840" /></g><g
               id="g2842"
               transform="translate(-273.7909,122.1692)"><path
                 d="M 0,0 C 0.381,0.551 -0.835,0.341 -1.062,0.338 C -1.324,0.333 -2.477,0.405 -2.201,-0.014 C -1.954,-0.39 -1.103,-0.069 -0.774,-0.204 C -0.774,-0.204 -0.235,-0.338 0,0"
                 style="fill:#c36e20;fill-opacity:1;fill-rule:nonzero;stroke:none"
                 id="path2844" /></g><g
               id="g2846"
               transform="translate(-271.7229,127.37)"><path
                 d="M 0,0 C 0.236,0.565 -0.807,0.042 -1.008,-0.027 C -1.241,-0.106 -2.28,-0.379 -1.956,-0.645 C -1.665,-0.883 -0.968,-0.374 -0.65,-0.39 C -0.65,-0.39 -0.144,-0.346 0,0"
                 style="fill:#c36e20;fill-opacity:1;fill-rule:nonzero;stroke:none"
                 id="path2848" /></g><g
               id="g2850"
               transform="translate(-281.9479,114.7827)"><path
                 d="M 0,0 C -0.023,0.215 0.158,1.647 -0.401,1.064 C -0.79,0.659 -0.194,-0.48 0.015,-0.385 C 0.224,-0.29 0.023,-0.215 0,0"
                 style="fill:#c36e20;fill-opacity:1;fill-rule:nonzero;stroke:none"
                 id="path2852" /></g><g
               id="g2854"
               transform="translate(-272.3577,123.9123)"><path
                 d="M 0,0 C -0.391,0.063 -2.006,0.301 -2.075,-0.368 C -1.794,-0.509 -1.481,-0.402 -1.185,-0.42 C -1.185,-0.42 -0.264,-0.359 0,0"
                 style="fill:#c36e20;fill-opacity:1;fill-rule:nonzero;stroke:none"
                 id="path2856" /></g><g
               id="g2858"
               transform="translate(-277.9556,118.5297)"><path
                 d="M 0,0 C 0.166,-0.246 0.667,-0.337 0.752,-0.16 C 0.837,0.016 0.058,0.494 -0.066,0.36 C -0.191,0.227 0,0 0,0"
                 style="fill:#c36e20;fill-opacity:1;fill-rule:nonzero;stroke:none"
                 id="path2860" /></g><g
               id="g2862"
               transform="translate(-275.4781,114.214)"><path
                 d="M 0,0 C -0.058,0.125 -0.297,1.083 -0.576,0.557 C -0.804,0.127 0.041,-0.689 0.134,-0.525 C 0.228,-0.36 0.058,-0.125 0,0"
                 style="fill:#c36e20;fill-opacity:1;fill-rule:nonzero;stroke:none"
                 id="path2864" /></g><g
               id="g2866"
               transform="translate(-286.639,111.4729)"><path
                 d="M 0,0 C -0.256,0.248 -0.976,-1.072 -0.915,-1.199 C -0.81,-1.419 -0.463,-0.984 -0.398,-0.944 C -0.398,-0.944 0.255,-0.249 0,0"
                 style="fill:#c36e20;fill-opacity:1;fill-rule:nonzero;stroke:none"
                 id="path2868" /></g><g
               id="g2870"
               transform="translate(-284.6357,113.8087)"><path
                 d="M 0,0 C -0.276,0.068 -0.918,-1.491 -0.624,-1.528 C -0.329,-1.566 0.276,-0.068 0,0"
                 style="fill:#c36e20;fill-opacity:1;fill-rule:nonzero;stroke:none"
                 id="path2872" /></g></g></g></g></g><g
       id="g2900"
       transform="matrix(1.0379891,0,0,1.0379891,-122.39877,-53.506122)"
       style="fill:#044123;fill-opacity:1"><g
         id="g2902"
         clip-path="url(#clipPath2904)"
         style="fill:#044123;fill-opacity:1"><g
           id="g2908"
           transform="translate(380.138,301.8038)"
           style="fill:#044123;fill-opacity:1" /><g
           id="g2912"
           transform="translate(301.2641,226.9154)"
           style="fill:#044123;fill-opacity:1" /><g
           id="g2916"
           transform="translate(215.9474,180.763)"
           style="fill:#044123;fill-opacity:1"><path
             d="M 0,0 L 0,-10.308 C 0.296,-10.326 0.552,-10.334 0.767,-10.334 C 1.721,-10.334 2.384,-10.096 2.755,-9.621 C 3.126,-9.145 3.311,-8.157 3.311,-6.655 L 3.311,-3.327 C 3.311,-1.943 3.098,-1.042 2.669,-0.624 C 2.241,-0.208 1.351,0 0,0 M -10.505,6.909 L 0.064,6.909 C 2.923,6.909 5.12,6.684 6.657,6.234 C 8.194,5.785 9.349,5.136 10.122,4.286 C 10.895,3.438 11.419,2.409 11.693,1.202 C 11.967,-0.006 12.104,-1.874 12.104,-4.404 L 12.104,-7.927 C 12.104,-10.507 11.838,-12.389 11.307,-13.571 C 10.775,-14.753 9.8,-15.66 8.38,-16.293 C 6.96,-16.926 5.105,-17.242 2.815,-17.242 L 0,-17.242 L 0,-33.514 L -10.505,-33.514 L -10.505,6.909"
             style="fill:#044123;fill-opacity:1;fill-rule:nonzero;stroke:none"
             id="path2918" /></g><g
           id="g2920"
           transform="translate(241.4066,161.6369)"
           style="fill:#044123;fill-opacity:1"><path
             d="M 0,0 C -0.499,4.601 -1.022,10.284 -1.567,17.054 C -2.594,9.276 -3.261,3.592 -3.565,0 L 0,0 z M 5.584,26.036 L 11.593,-14.388 L 0.873,-14.388 L 0.311,-7.136 L -3.489,-7.136 L -4.065,-14.388 L -14.927,-14.388 L -9.575,26.036 L 5.584,26.036"
             style="fill:#044123;fill-opacity:1;fill-rule:nonzero;stroke:none"
             id="path2922" /></g><g
           id="g2924"
           transform="translate(264.4913,180.763)"
           style="fill:#044123;fill-opacity:1"><path
             d="M 0,0 L 0,-9.021 C 1.161,-9.021 1.975,-8.857 2.441,-8.532 C 2.906,-8.207 3.141,-7.149 3.141,-5.361 L 3.141,-3.131 C 3.141,-1.845 2.916,-1.002 2.466,-0.601 C 2.016,-0.2 1.193,0 0,0 M -10.505,6.909 L -3.084,6.909 C 1.863,6.909 5.213,6.718 6.964,6.334 C 8.715,5.951 10.142,4.971 11.247,3.398 C 12.351,1.823 12.904,-0.688 12.904,-4.137 C 12.904,-7.286 12.512,-9.402 11.731,-10.485 C 10.949,-11.567 9.41,-12.218 7.115,-12.433 C 9.193,-12.95 10.591,-13.641 11.307,-14.505 C 12.022,-15.37 12.467,-16.164 12.641,-16.888 C 12.816,-17.612 12.904,-19.602 12.904,-22.862 L 12.904,-33.514 L 3.141,-33.514 L 3.141,-20.091 C 3.141,-17.928 2.973,-16.589 2.637,-16.074 C 2.301,-15.558 1.423,-15.3 0,-15.3 L 0,-33.514 L -10.505,-33.514 L -10.505,6.909"
             style="fill:#044123;fill-opacity:1;fill-rule:nonzero;stroke:none"
             id="path2926" /></g><g
           id="g2928"
           transform="translate(301.3153,187.6724)"
           style="fill:#044123;fill-opacity:1"><path
             d="M 0,0 L 0,-8.108 L -6.281,-8.108 L -6.281,-40.423 L -16.786,-40.423 L -16.786,-8.108 L -23.01,-8.108 L -23.01,0 L 0,0 z"
             style="fill:#044123;fill-opacity:1;fill-rule:nonzero;stroke:none"
             id="path2930" /></g><path
           d="M 313.38,147.249 L 302.874,147.249 L 302.874,187.672 L 313.38,187.672 L 313.38,147.249 z"
           style="fill:#044123;fill-opacity:1;fill-rule:nonzero;stroke:none"
           id="path2932" /><g
           id="g2934"
           transform="translate(329.3651,187.6724)"
           style="fill:#044123;fill-opacity:1"><path
             d="M 0,0 L 0,-27.015 C 0,-31.06 -0.042,-33.662 -0.125,-34.818 C -0.209,-35.975 -0.59,-37.02 -1.271,-37.952 C -1.95,-38.885 -2.865,-39.529 -4.014,-39.887 C -5.164,-40.245 -6.895,-40.423 -9.21,-40.423 L -14.445,-40.423 L -14.445,-33.383 C -13.821,-33.433 -13.369,-33.458 -13.09,-33.458 C -12.352,-33.458 -11.769,-33.275 -11.342,-32.909 C -10.916,-32.543 -10.669,-32.093 -10.604,-31.559 C -10.538,-31.026 -10.504,-29.992 -10.504,-28.459 L -10.504,0 L 0,0"
             style="fill:#044123;fill-opacity:1;fill-rule:nonzero;stroke:none"
             id="path2936" /></g><g
           id="g2938"
           transform="translate(351.7492,169.9057)"
           style="fill:#044123;fill-opacity:1"><path
             d="M 0,0 L -3.25,-22.634 L -12.219,-22.634 L -15.711,0 L -9.57,0 L -7.615,-16.571 C -7.464,-15.328 -7.199,-12.355 -6.82,-7.651 C -6.587,-5.029 -6.359,-2.478 -6.14,0 L 0,0"
             style="fill:#044123;fill-opacity:1;fill-rule:nonzero;stroke:none"
             id="path2940" /></g><g
           id="g2942"
           transform="translate(360.9992,163.6545)"
           style="fill:#044123;fill-opacity:1"><path
             d="M 0,0 C 0,1.157 -0.066,1.886 -0.196,2.187 C -0.328,2.489 -0.606,2.639 -1.035,2.639 C -1.465,2.639 -1.749,2.489 -1.892,2.187 C -2.035,1.886 -2.106,1.157 -2.106,0 L -2.106,-10.2 C -2.106,-11.268 -2.035,-11.963 -1.892,-12.286 C -1.749,-12.609 -1.47,-12.771 -1.053,-12.771 C -0.626,-12.771 -0.343,-12.625 -0.206,-12.329 C -0.068,-12.034 0,-11.399 0,-10.422 L 0,0 z M 6.862,-1.695 L 6.862,-7.242 C 6.862,-9.281 6.761,-10.776 6.555,-11.725 C 6.35,-12.675 5.912,-13.564 5.239,-14.388 C 4.565,-15.213 3.703,-15.823 2.648,-16.216 C 1.594,-16.608 0.384,-16.805 -0.984,-16.805 C -2.511,-16.805 -3.806,-16.636 -4.866,-16.301 C -5.925,-15.966 -6.749,-15.459 -7.335,-14.781 C -7.923,-14.105 -8.343,-13.285 -8.592,-12.323 C -8.844,-11.362 -8.968,-9.919 -8.968,-7.995 L -8.968,-2.188 C -8.968,-0.084 -8.741,1.561 -8.284,2.745 C -7.83,3.928 -7.009,4.88 -5.823,5.597 C -4.638,6.313 -3.122,6.673 -1.274,6.673 C 0.275,6.673 1.605,6.442 2.717,5.982 C 3.828,5.521 4.685,4.92 5.29,4.18 C 5.893,3.439 6.308,2.677 6.529,1.891 C 6.752,1.106 6.862,-0.09 6.862,-1.695"
             style="fill:#044123;fill-opacity:1;fill-rule:nonzero;stroke:none"
             id="path2944" /></g><g
           id="g2946"
           transform="translate(377.7247,163.6545)"
           style="fill:#044123;fill-opacity:1"><path
             d="M 0,0 C 0,1.157 -0.066,1.886 -0.197,2.187 C -0.329,2.489 -0.607,2.639 -1.036,2.639 C -1.465,2.639 -1.75,2.489 -1.893,2.187 C -2.035,1.886 -2.107,1.157 -2.107,0 L -2.107,-10.2 C -2.107,-11.268 -2.035,-11.963 -1.893,-12.286 C -1.75,-12.609 -1.47,-12.771 -1.053,-12.771 C -0.626,-12.771 -0.343,-12.625 -0.207,-12.329 C -0.069,-12.034 0,-11.399 0,-10.422 L 0,0 z M 6.862,-1.695 L 6.862,-7.242 C 6.862,-9.281 6.76,-10.776 6.555,-11.725 C 6.35,-12.675 5.91,-13.564 5.238,-14.388 C 4.565,-15.213 3.702,-15.823 2.648,-16.216 C 1.593,-16.608 0.383,-16.805 -0.985,-16.805 C -2.513,-16.805 -3.807,-16.636 -4.867,-16.301 C -5.927,-15.966 -6.75,-15.459 -7.337,-14.781 C -7.924,-14.105 -8.344,-13.285 -8.593,-12.323 C -8.844,-11.362 -8.97,-9.919 -8.97,-7.995 L -8.97,-2.188 C -8.97,-0.084 -8.741,1.561 -8.285,2.745 C -7.831,3.928 -7.01,4.88 -5.824,5.597 C -4.639,6.313 -3.123,6.673 -1.276,6.673 C 0.275,6.673 1.604,6.442 2.717,5.982 C 3.826,5.521 4.684,4.92 5.288,4.18 C 5.892,3.439 6.307,2.677 6.528,1.891 C 6.75,1.106 6.862,-0.09 6.862,-1.695"
             style="fill:#044123;fill-opacity:1;fill-rule:nonzero;stroke:none"
             id="path2948" /></g><g
           id="g2950"
           transform="translate(392.4282,169.9057)"
           style="fill:#044123;fill-opacity:1"><path
             d="M 0,0 L -0.241,-2.986 C 0.77,-0.841 2.234,0.295 4.153,0.422 L 4.153,-7.525 C 2.886,-7.525 1.955,-7.696 1.362,-8.038 C 0.767,-8.38 0.402,-8.856 0.265,-9.465 C 0.128,-10.075 0.06,-11.48 0.06,-13.678 L 0.06,-22.634 L -6.802,-22.634 L -6.802,0 L 0,0"
             style="fill:#044123;fill-opacity:1;fill-rule:nonzero;stroke:none"
             id="path2952" /></g><g
           id="g2954"
           transform="translate(215.9474,137.4403)"
           style="fill:#044123;fill-opacity:1"><path
             d="M 0,0 L 0,-26.605 C 1.51,-26.605 2.44,-26.302 2.789,-25.694 C 3.137,-25.086 3.311,-23.433 3.311,-20.735 L 3.311,-5.022 C 3.311,-3.189 3.253,-2.015 3.137,-1.498 C 3.021,-0.982 2.755,-0.604 2.34,-0.362 C 1.925,-0.121 1.146,0 0,0 M -10.505,6.909 L -2.648,6.909 C 2.425,6.909 5.855,6.676 7.643,6.21 C 9.43,5.744 10.79,4.978 11.721,3.913 C 12.653,2.847 13.235,1.66 13.467,0.354 C 13.7,-0.951 13.817,-3.52 13.817,-7.348 L 13.817,-21.504 C 13.817,-25.134 13.646,-27.56 13.306,-28.782 C 12.965,-30.006 12.37,-30.963 11.521,-31.653 C 10.674,-32.344 9.626,-32.827 8.379,-33.101 C 7.131,-33.376 5.252,-33.514 2.74,-33.514 L -10.505,-33.514 L -10.505,6.909"
             style="fill:#044123;fill-opacity:1;fill-rule:nonzero;stroke:none"
             id="path2956" /></g><g
           id="g2958"
           transform="translate(233.1423,144.3497)"
           style="fill:#044123;fill-opacity:1"><path
             d="M 0,0 L 17.528,0 L 17.528,-8.108 L 10.506,-8.108 L 10.506,-15.758 L 17.072,-15.758 L 17.072,-23.467 L 10.506,-23.467 L 10.506,-32.315 L 18.213,-32.315 L 18.213,-40.423 L 0,-40.423 L 0,0 z"
             style="fill:#044123;fill-opacity:1;fill-rule:nonzero;stroke:none"
             id="path2960" /></g><g
           id="g2962"
           transform="translate(273.6337,137.4403)"
           style="fill:#044123;fill-opacity:1"><path
             d="M 0,0 L 0,-26.605 C 1.51,-26.605 2.44,-26.302 2.789,-25.694 C 3.137,-25.086 3.312,-23.433 3.312,-20.735 L 3.312,-5.022 C 3.312,-3.189 3.252,-2.015 3.137,-1.498 C 3.02,-0.982 2.755,-0.604 2.34,-0.362 C 1.926,-0.121 1.146,0 0,0 M -10.505,6.909 L -2.648,6.909 C 2.424,6.909 5.855,6.676 7.643,6.21 C 9.431,5.744 10.79,4.978 11.722,3.913 C 12.653,2.847 13.234,1.66 13.468,0.354 C 13.7,-0.951 13.817,-3.52 13.817,-7.348 L 13.817,-21.504 C 13.817,-25.134 13.647,-27.56 13.306,-28.782 C 12.965,-30.006 12.37,-30.963 11.521,-31.653 C 10.673,-32.344 9.626,-32.827 8.379,-33.101 C 7.132,-33.376 5.252,-33.514 2.741,-33.514 L -10.505,-33.514 L -10.505,6.909"
             style="fill:#044123;fill-opacity:1;fill-rule:nonzero;stroke:none"
             id="path2964" /></g><path
           d="M 300.937,103.927 L 290.431,103.927 L 290.431,144.35 L 300.937,144.35 L 300.937,103.927 z"
           style="fill:#044123;fill-opacity:1;fill-rule:nonzero;stroke:none"
           id="path2966" /><g
           id="g2968"
           transform="translate(304.2348,144.3497)"
           style="fill:#044123;fill-opacity:1"><path
             d="M 0,0 L 17.528,0 L 17.528,-8.108 L 10.506,-8.108 L 10.506,-15.758 L 17.071,-15.758 L 17.071,-23.467 L 10.506,-23.467 L 10.506,-32.315 L 18.213,-32.315 L 18.213,-40.423 L 0,-40.423 L 0,0 z"
             style="fill:#044123;fill-opacity:1;fill-rule:nonzero;stroke:none"
             id="path2970" /></g><g
           id="g2972"
           transform="translate(335.8925,137.4403)"
           style="fill:#044123;fill-opacity:1"><path
             d="M 0,0 L 0,-9.021 C 1.162,-9.021 1.975,-8.857 2.441,-8.533 C 2.907,-8.206 3.141,-7.15 3.141,-5.361 L 3.141,-3.131 C 3.141,-1.845 2.916,-1.002 2.466,-0.601 C 2.017,-0.201 1.194,0 0,0 M -10.505,6.909 L -3.083,6.909 C 1.863,6.909 5.212,6.718 6.965,6.334 C 8.715,5.95 10.143,4.971 11.247,3.398 C 12.351,1.824 12.904,-0.689 12.904,-4.137 C 12.904,-7.286 12.512,-9.402 11.731,-10.485 C 10.95,-11.568 9.411,-12.218 7.116,-12.434 C 9.194,-12.951 10.591,-13.641 11.307,-14.506 C 12.022,-15.371 12.467,-16.164 12.641,-16.888 C 12.817,-17.611 12.904,-19.602 12.904,-22.862 L 12.904,-33.514 L 3.141,-33.514 L 3.141,-20.092 C 3.141,-17.929 2.973,-16.59 2.638,-16.074 C 2.302,-15.558 1.424,-15.301 0,-15.301 L 0,-33.514 L -10.505,-33.514 L -10.505,6.909"
             style="fill:#044123;fill-opacity:1;fill-rule:nonzero;stroke:none"
             id="path2974" /></g><g
           id="g2976"
           transform="translate(352.0293,144.3497)"
           style="fill:#044123;fill-opacity:1"><path
             d="M 0,0 L 17.528,0 L 17.528,-8.108 L 10.505,-8.108 L 10.505,-15.758 L 17.071,-15.758 L 17.071,-23.467 L 10.505,-23.467 L 10.505,-32.315 L 18.213,-32.315 L 18.213,-40.423 L 0,-40.423 L 0,0 z"
             style="fill:#044123;fill-opacity:1;fill-rule:nonzero;stroke:none"
             id="path2978" /></g><g
           id="g2980"
           transform="translate(396.471,144.3497)"
           style="fill:#044123;fill-opacity:1"><path
             d="M 0,0 L 0,-40.423 L -9.193,-40.423 L -14.673,-22.047 L -14.673,-40.423 L -23.465,-40.423 L -23.465,0 L -14.673,0 L -8.792,-18.202 L -8.792,0 L 0,0 z"
             style="fill:#044123;fill-opacity:1;fill-rule:nonzero;stroke:none"
             id="path2982" /></g></g></g></g></svg>