<?xml version="1.0" encoding="UTF-8" standalone="no"?>
<!-- Created with Inkscape (http://www.inkscape.org/) -->
<svg
   xmlns:svg="http://www.w3.org/2000/svg"
   xmlns="http://www.w3.org/2000/svg"
   version="1.0"
   width="2835.646"
   height="1593.363"
   viewBox="0 0 2835.646 1593.363"
   id="Layer_1"
   xml:space="preserve"><defs
   id="defs2735">
	

		
		
		
		
		
		
		
	</defs>
<path
   d="M 441.101,0 C 458.771,0 476.442,0 494.113,0 C 778.066,19.274 928.986,183.414 920.21,493.112 C 810.852,493.112 701.493,493.112 592.135,493.112 C 589.989,371.24 577.219,275.624 463.106,273.062 C 406.903,271.8 372.689,301.919 358.082,342.078 C 341.149,388.633 350.727,448.681 373.085,483.11 C 394.222,515.658 428.776,543.442 464.106,566.129 C 568.078,632.894 694.576,689.674 783.179,769.175 C 845.419,825.021 889.985,896.192 909.208,992.225 C 928.665,1089.428 927.198,1215.869 901.206,1306.297 C 849.69,1485.526 711.701,1583.436 492.113,1593.362 C 473.109,1593.362 454.104,1593.362 435.1,1593.362 C 184.319,1578.423 23.085,1473.912 0,1231.28 C 0,1170.266 0,1109.253 0,1048.238 C 109.69,1048.905 222.052,1046.905 330.075,1049.239 C 325.848,1179.787 325.985,1286.433 421.096,1313.299 C 474.435,1328.365 528.653,1315.845 556.127,1282.292 C 582.987,1249.489 596.335,1199.372 590.135,1142.26 C 579.305,1042.5 496.653,996.256 424.097,953.217 C 274.869,864.698 117.273,783.5 51.012,615.14 C 18.059,531.413 11.5,403.119 34.008,304.069 C 77.531,112.537 213.518,12.342 441.101,0 z "
   style="fill:#e60000;fill-opacity:1;fill-rule:evenodd"
   id="path2722" /><path
   d="M 1089.248,36.008 C 1296.701,43.403 1519.138,21.471 1699.387,48.01 C 1882.88,75.028 1996.875,163.347 2033.463,336.076 C 2052.34,425.19 2051.174,535.565 2037.464,623.141 C 2008.993,805.006 1917.291,915.796 1742.397,950.216 C 1657.789,966.866 1553.03,961.327 1446.33,965.219 C 1443.997,1160.596 1445.997,1360.313 1445.33,1557.354 C 1326.303,1557.354 1207.276,1557.354 1088.249,1557.354 C 1088.249,1051.254 1088.249,545.088 1088.249,39.008 C 1088.162,37.589 1088.083,36.176 1089.248,36.008 z M 1445.329,313.071 C 1445.329,439.097 1445.329,565.13 1445.329,691.157 C 1526.653,689.562 1598.65,693.874 1644.375,654.149 C 1707.002,599.739 1706.908,392.108 1645.375,336.077 C 1603.739,298.164 1523.959,315.012 1446.329,310.071 C 1445.164,310.239 1445.243,311.652 1445.329,313.071 z "
   style="fill:#e60000;fill-opacity:1;fill-rule:evenodd"
   id="path2726" /><path
   d="M 2835.646,1185.27 C 2835.646,1197.94 2835.646,1210.61 2835.646,1223.279 C 2832.961,1262.294 2822.024,1303.198 2808.64,1334.304 C 2767.864,1429.077 2690.356,1495.821 2593.591,1532.349 C 2525.865,1557.915 2434.742,1568.119 2353.536,1551.354 C 2279.192,1536.005 2217.441,1502.292 2168.494,1460.333 C 2120.175,1418.911 2079.625,1364.419 2059.469,1294.295 C 2037.741,1218.701 2047.868,1125.075 2075.473,1059.241 C 2101.044,998.258 2139.852,944.986 2204.502,913.208 C 2233.93,898.743 2270.354,886.679 2317.527,890.203 C 2337.044,891.661 2355.361,894.285 2375.541,901.205 C 2383.914,904.076 2418.739,916.541 2420.551,925.211 C 2422.266,933.411 2415.338,942.37 2412.55,951.217 C 2409.018,962.424 2409.023,972.768 2402.547,976.223 C 2392.511,981.577 2365.903,977.223 2350.535,977.223 C 2337.201,977.223 2304.511,972.866 2302.524,983.224 C 2301.172,990.275 2313.158,997.588 2319.528,1002.229 C 2336.623,1014.681 2345.566,1020.569 2361.538,1032.236 C 2368.135,1037.054 2379.858,1042.525 2380.542,1050.24 C 2381.02,1055.628 2375.634,1067.493 2373.541,1074.246 C 2370.896,1082.775 2367.328,1091.624 2365.539,1097.251 C 2360.444,1113.269 2352.474,1126.011 2354.536,1145.262 C 2363.832,1150.162 2371.088,1140.981 2377.541,1136.26 C 2392.149,1125.574 2404.428,1117.15 2419.551,1106.253 C 2426.115,1101.524 2435.898,1091.801 2442.557,1092.25 C 2447.793,1092.603 2458.633,1102.688 2463.561,1106.253 C 2478.934,1117.375 2490.755,1126.196 2504.571,1136.26 C 2510.567,1140.627 2518.73,1149.864 2527.577,1145.262 C 2532.826,1137.957 2527.799,1128.118 2525.576,1121.257 C 2522.982,1113.248 2520.115,1105.27 2517.574,1097.251 C 2514.768,1088.397 2500.41,1058.559 2502.571,1048.239 C 2503.589,1043.379 2515.946,1035.319 2521.575,1031.236 C 2537.784,1019.476 2547.751,1012.89 2563.585,1001.229 C 2566.522,999.066 2583.049,990.533 2580.589,982.224 C 2577.912,973.187 2545.177,977.223 2532.578,977.223 C 2512.252,977.223 2495.206,977.98 2479.565,976.223 C 2474.214,969.986 2473.673,961.249 2470.563,951.217 C 2468.133,943.379 2460.35,932.242 2462.561,924.211 C 2464.526,917.076 2483.274,911.345 2490.568,908.207 C 2502.919,902.894 2512.647,900.072 2523.575,897.204 C 2606.878,875.342 2680.991,906.613 2724.622,944.215 C 2789.714,1000.315 2827.463,1080.742 2835.646,1185.27 z "
   style="fill:#e60000;fill-opacity:1;fill-rule:evenodd"
   id="path2730" />
</svg>