<?xml version="1.0" encoding="UTF-8" standalone="no"?>
<!-- Created with Inkscape (http://www.inkscape.org/) -->

<svg
   xmlns:dc="http://purl.org/dc/elements/1.1/"
   xmlns:cc="http://creativecommons.org/ns#"
   xmlns:rdf="http://www.w3.org/1999/02/22-rdf-syntax-ns#"
   xmlns:svg="http://www.w3.org/2000/svg"
   xmlns="http://www.w3.org/2000/svg"
   xmlns:sodipodi="http://sodipodi.sourceforge.net/DTD/sodipodi-0.dtd"
   xmlns:inkscape="http://www.inkscape.org/namespaces/inkscape"
   id="svg3728"
   version="1.1"
   inkscape:version="0.48.2 r9819"
   width="178.75"
   height="223.75"
   xml:space="preserve"
   sodipodi:docname="logo_trots_op_nl_CMYK.pdf"><metadata
     id="metadata3734"><rdf:RDF><cc:Work
         rdf:about=""><dc:format>image/svg+xml</dc:format><dc:type
           rdf:resource="http://purl.org/dc/dcmitype/StillImage" /><dc:title></dc:title></cc:Work></rdf:RDF></metadata><defs
     id="defs3732"><clipPath
       clipPathUnits="userSpaceOnUse"
       id="clipPath3744"><path
         d="M 0,0 143,0 143,179 0,179 0,0 z"
         id="path3746" /></clipPath><clipPath
       clipPathUnits="userSpaceOnUse"
       id="clipPath3770"><path
         d="m 0,178.08 142.813,0 0,-178.02 L 0,0.06 0,178.08 z"
         id="path3772" /></clipPath><clipPath
       clipPathUnits="userSpaceOnUse"
       id="clipPath3776"><path
         d="M 0,0 143,0 143,179 0,179 0,0 z"
         id="path3778" /></clipPath><clipPath
       clipPathUnits="userSpaceOnUse"
       id="clipPath3788"><path
         d="M 0,0 143,0 143,179 0,179 0,0 z"
         id="path3790" /></clipPath></defs><sodipodi:namedview
     pagecolor="#ffffff"
     bordercolor="#666666"
     borderopacity="1"
     objecttolerance="10"
     gridtolerance="10"
     guidetolerance="10"
     inkscape:pageopacity="0"
     inkscape:pageshadow="2"
     inkscape:window-width="640"
     inkscape:window-height="480"
     id="namedview3730"
     showgrid="false"
     inkscape:zoom="1.0547486"
     inkscape:cx="89.375"
     inkscape:cy="111.875"
     inkscape:window-x="0"
     inkscape:window-y="0"
     inkscape:window-maximized="0"
     inkscape:current-layer="g3736" /><g
     id="g3736"
     inkscape:groupmode="layer"
     inkscape:label="logo_trots_op_nl_CMYK"
     transform="matrix(1.25,0,0,-1.25,0,223.75)"><g
       id="g3738" /><g
       id="g3740"><g
         id="g3742"
         clip-path="url(#clipPath3744)"><path
           d="m 71.361,169.854 c -24.894,0 -61.524,-11.952 -61.524,-11.952 0,0 -5.319,-73.953 4.293,-94.932 9.603,-20.988 57.204,-46.503 57.204,-46.503 0,0 47.682,25.569 57.321,46.575 9.63,20.979 4.374,94.923 4.374,94.923 0,0 -35.946,11.889 -61.668,11.889"
           style="fill:#ffffff;fill-opacity:1;fill-rule:nonzero;stroke:none"
           id="path3748" /><path
           d="m 58.914,170.727 25.461,0 0,-157.14 -25.461,0 0,157.14 z"
           style="fill:#f58113;fill-opacity:1;fill-rule:nonzero;stroke:none"
           id="path3750" /><path
           d="M 130.671,63.897 C 127.197,55.428 108.828,38.742 108.828,38.742 l 0,130.05 25.488,-5.805 c 0,0 5.67,-76.383 -3.645,-99.09"
           style="fill:#00adef;fill-opacity:1;fill-rule:nonzero;stroke:none"
           id="path3752" /><path
           d="m 33.759,38.742 c 0,0 -18.369,16.686 -21.843,25.155 -9.315,22.707 -3.645,99.09 -3.645,99.09 l 25.488,5.805 0,-130.05"
           style="fill:#ef2e31;fill-opacity:1;fill-rule:nonzero;stroke:none"
           id="path3754" /><path
           d="m 135.244,89.978 c 0.928,13.107 0.904,28.193 0.568,41.237 0.607,-0.264 0.925,-0.412 0.925,-0.412 L 135.72,90.105 c 0,0 -0.164,-0.044 -0.476,-0.127"
           style="fill:#8c9787;fill-opacity:1;fill-rule:nonzero;stroke:none"
           id="path3756" /><path
           d="m 84.375,78.75 0,65.634 c 8.827,-0.822 17.15,-2.41 24.453,-4.219 l 0,-56.667 C 100.627,81.653 91.816,79.853 84.375,78.75 m -25.461,0.043 c -7.849,1.029 -16.883,2.626 -25.155,4.229 l 0,56.235 c 7.524,2.094 16.138,3.98 25.155,4.977 l 0,-65.441"
           style="fill:#8c9686;fill-opacity:1;fill-rule:nonzero;stroke:none"
           id="path3758" /><path
           d="m 72.64,77.658 c -3.621,0 -8.4,0.437 -13.726,1.135 l 0,65.441 c 4.269,0.472 8.63,0.744 13.005,0.744 4.225,0 8.393,-0.216 12.456,-0.594 l 0,-65.634 c -4.519,-0.669 -8.533,-1.082 -11.601,-1.092 -0.044,0 -0.089,0 -0.134,0"
           style="fill:#896a38;fill-opacity:1;fill-rule:nonzero;stroke:none"
           id="path3760" /><path
           d="m 108.828,83.498 0,56.667 c 13.808,-3.422 23.969,-7.635 26.984,-8.95 0.336,-13.044 0.36,-28.13 -0.568,-41.237 -2.412,-0.643 -13.681,-3.616 -26.416,-6.48"
           style="fill:#3c7c87;fill-opacity:1;fill-rule:nonzero;stroke:none"
           id="path3762" /><path
           d="M 33.759,83.022 C 19.676,85.753 7.812,88.503 7.812,88.503 L 7.2,129.66 c 0,0 10.922,5.245 26.559,9.597 l 0,-56.235"
           style="fill:#894e3b;fill-opacity:1;fill-rule:nonzero;stroke:none"
           id="path3764" /></g></g><g
       id="g3766"><g
         id="g3768"
         clip-path="url(#clipPath3770)"><g
           id="g3774"
           clip-path="url(#clipPath3776)"><path
             d="m 135.971,90.9 c 0,0 -46.226,-6.89 -63.2,-6.936 C 54.829,83.916 6.995,89.639 6.995,89.639 L 3.99,128.5 c 0,0 35.103,12.983 67.932,12.983 34.25,0 66.822,-11.217 66.822,-11.217 L 135.971,90.9"
             style="fill:#ffffff;fill-opacity:1;fill-rule:nonzero;stroke:none"
             id="path3780" /><path
             d="m 12.862,155.228 c -0.791,-12.67 -4.052,-72.962 4.132,-90.835 8.123,-17.74 46.37,-39.731 54.32,-44.157 7.96,4.434 46.292,26.483 54.436,44.232 8.204,17.875 4.987,78.175 4.206,90.831 -7.998,2.486 -37.185,11.069 -58.615,11.069 -20.753,0 -50.389,-8.652 -58.479,-11.14 z M 71.306,0 69.534,1.246 C 67.511,2.668 19.866,36.352 8.997,60.093 -1.831,83.738 0.099,160.363 0.187,163.614 l 0.072,2.652 2.433,0.581 c 1.922,0.458 47.301,11.224 68.643,11.233 21.412,0 66.868,-10.707 68.793,-11.162 l 2.442,-0.579 0.07,-2.658 c 0.084,-3.25 1.952,-79.867 -8.899,-103.511 C 122.839,36.411 75.104,2.67 73.077,1.246 L 71.306,0"
             style="fill:#171915;fill-opacity:1;fill-rule:nonzero;stroke:none"
             id="path3782" /></g></g></g><g
       id="g3784"><g
         id="g3786"
         clip-path="url(#clipPath3788)"><path
           d="M 122.864,65.964 C 116.23,51.506 85.741,32.176 71.314,24.079 c -14.4,8.08 -44.823,27.369 -51.432,41.808 -6.744,14.726 -5.358,63.783 -3.973,86.714 10.17,3.039 36.619,10.353 55.432,10.353 19.421,0 45.511,-7.245 55.567,-10.273 1.366,-22.926 2.715,-71.99 -4.044,-86.717 z M 71.341,169.781 c -24.893,0 -61.526,-11.952 -61.526,-11.952 0,0 -5.314,-73.953 4.293,-94.93 9.609,-20.987 57.207,-46.506 57.207,-46.506 0,0 47.684,25.572 57.322,46.579 9.627,20.975 4.371,94.922 4.371,94.922 0,0 -35.944,11.887 -61.667,11.887"
           style="fill:#ffffff;fill-opacity:1;fill-rule:nonzero;stroke:none"
           id="path3792" /><path
           d="m 17.079,116.791 c -1.019,-0.11 -1.529,-0.167 -2.547,-0.283 0,1.807 0,2.71 0,4.518 3.016,0.642 6.039,1.234 9.073,1.772 0,-2.137 0,-3.206 0,-5.344 -1.023,-0.097 -1.534,-0.146 -2.555,-0.249 0,-5.621 0,-11.242 0,-16.863 -1.59,0.299 -2.385,0.454 -3.971,0.777 0,5.224 0,10.448 0,15.672"
           style="fill:#171915;fill-opacity:1;fill-rule:nonzero;stroke:none"
           id="path3794" /><path
           d="m 28.301,112.817 c 0.23,-0.064 0.462,-0.095 0.714,-0.09 0.902,0.015 1.763,0.953 1.763,2.905 0,1.917 -0.819,2.595 -1.847,2.506 -0.252,-0.022 -0.379,-0.033 -0.63,-0.055 0,-2.106 0,-3.159 0,-5.266 z m -3.984,10.106 c 2.272,0.398 3.408,0.585 5.684,0.932 4.132,0.644 5.082,-4.564 5.022,-7.758 -0.055,-3.025 -0.63,-5.664 -2.166,-6.722 0.906,-3.777 1.794,-7.557 2.671,-11.341 -1.649,0.216 -2.473,0.332 -4.12,0.574 -0.823,3.726 -1.235,5.549 -2.057,9.102 -0.42,0.019 -0.629,0.028 -1.05,0.048 0,-3.469 0,-5.204 0,-8.673 -1.595,0.254 -2.392,0.388 -3.984,0.666 0,7.725 0,15.449 0,23.172"
           style="fill:#171915;fill-opacity:1;fill-rule:nonzero;stroke:none"
           id="path3796" /><path
           d="m 42.161,104.291 c 1.307,-0.069 2.193,2.06 2.193,7.248 0,5.188 -0.886,7.315 -2.193,7.241 -1.307,-0.073 -2.191,-2.229 -2.191,-7.247 0,-5.02 0.884,-7.172 2.191,-7.242 z m 0,-7.521 c -5.543,0.514 -6.333,9.925 -6.316,14.568 0.015,4.638 0.693,13.891 6.316,14.568 6.068,0.731 6.228,-10.539 6.328,-14.568 0.108,-4.337 -0.452,-15.114 -6.328,-14.568"
           style="fill:#171915;fill-opacity:1;fill-rule:nonzero;stroke:none"
           id="path3798" /><path
           d="m 51.466,119.299 c -1.029,-0.039 -1.545,-0.06 -2.575,-0.104 0,2.745 0,4.119 0,6.865 3.051,0.247 6.107,0.441 9.165,0.582 0,-2.855 0,-4.282 0,-7.137 -1.032,-0.025 -1.547,-0.039 -2.578,-0.07 0,-7.757 0,-15.514 0,-23.27 -1.604,0.089 -2.407,0.141 -4.012,0.255 0,7.626 0,15.253 0,22.879"
           style="fill:#171915;fill-opacity:1;fill-rule:nonzero;stroke:none"
           id="path3800" /><path
           d="m 58.795,105.909 c 0.634,-1.044 1.859,-2.712 3.106,-2.733 1.057,-0.018 1.762,0.855 1.648,2.152 -0.393,4.475 -5.134,6.301 -5.071,12.422 0.037,3.606 1.108,9.447 5.41,9.621 1.332,0.054 2.896,-0.818 3.361,-1.556 0,-3.359 0,-5.038 0,-8.397 -0.846,1.308 -1.754,2.129 -2.621,2.12 -0.908,-0.011 -1.821,-0.893 -1.712,-2.285 0.343,-4.376 5.145,-5.803 5.072,-11.911 -0.043,-3.678 -1.055,-10.075 -5.643,-9.994 -1.586,0.028 -2.726,0.834 -3.55,1.815 0,3.498 0,5.248 0,8.746"
           style="fill:#171915;fill-opacity:1;fill-rule:nonzero;stroke:none"
           id="path3802" /><path
           d="m 81.2,103.652 c 1.311,0.027 2.197,2.366 2.197,7.9 0,5.534 -0.886,7.875 -2.197,7.903 -1.308,0.028 -2.197,-2.301 -2.197,-7.9 0,-5.599 0.889,-7.93 2.197,-7.903 z m 0,-8.203 c -5.959,-0.025 -6.353,11.21 -6.34,15.889 0.012,4.242 0.241,16.168 6.34,15.888 5.998,-0.276 6.324,-11.392 6.337,-15.888 0.014,-4.497 -0.513,-15.864 -6.337,-15.889"
           style="fill:#171915;fill-opacity:1;fill-rule:nonzero;stroke:none"
           id="path3804" /><path
           d="m 92.669,112.779 c 0.194,-0.002 0.29,-0.002 0.484,-0.004 1.055,-0.009 1.92,0.835 1.92,3.189 0,2.597 -0.927,3.375 -1.982,3.424 -0.17,0.008 -0.254,0.012 -0.422,0.02 0,-2.652 0,-3.977 0,-6.629 z m -4.012,13.522 c 2.095,-0.143 3.143,-0.225 5.235,-0.41 4.39,-0.481 5.443,-6.313 5.44,-10.026 -0.002,-3.616 -1.205,-9.372 -5.523,-9.64 -0.456,-0.014 -0.685,-0.021 -1.14,-0.035 0,-3.804 0,-5.706 0,-9.51 -1.604,-0.135 -2.407,-0.196 -4.012,-0.306 0,9.976 0,19.952 0,29.927"
           style="fill:#171915;fill-opacity:1;fill-rule:nonzero;stroke:none"
           id="path3806" /><path
           d="m 106.196,124.515 c 1.825,-0.247 2.738,-0.379 4.561,-0.657 0.945,-5.32 1.921,-10.635 2.938,-15.941 l 0.041,0.002 c 0,5.156 0,10.311 0,15.467 1.46,-0.24 2.192,-0.365 3.649,-0.625 0,-7.616 0,-15.232 0,-22.847 -1.819,-0.325 -2.728,-0.479 -4.55,-0.771 -1.006,5.244 -1.984,10.493 -2.939,15.748 l -0.042,0.002 c 0,-5.404 0,-10.809 0,-16.213 -1.463,-0.218 -2.194,-0.322 -3.658,-0.52 0,8.785 0,17.57 0,26.355"
           style="fill:#171915;fill-opacity:1;fill-rule:nonzero;stroke:none"
           id="path3808" /><path
           d="m 118.81,122.502 c 1.59,-0.292 2.385,-0.444 3.974,-0.761 0,-5.241 0,-10.482 0,-15.722 1.387,0.141 2.08,0.214 3.466,0.366 0,-1.895 0,-2.842 0,-4.736 -2.972,-0.634 -4.46,-0.928 -7.441,-1.477 0.001,7.443 0.001,14.887 0.001,22.33"
           style="fill:#171915;fill-opacity:1;fill-rule:nonzero;stroke:none"
           id="path3810" /></g></g></g></svg>